<svg xmlns="http://www.w3.org/2000/svg" viewBox="0 0 46.383 36.941">
  <defs>
    <style>
      .cls-1 {
        fill: none;
        stroke: #fff;
        stroke-width: 3px;
      }
    </style>
  </defs>
  <g id="Group_20" data-name="Group 20" transform="translate(44.724 35.441) rotate(180)">
    <path id="Path_7" data-name="Path 7" class="cls-1" d="M13.008,23.24a10.769,10.769,0,0,0-2.976-.434A9.351,9.351,0,0,0,6.3,23.57c.938-3.434,3.191-9.358,7.679-10.025a1.066,1.066,0,0,0,.87-.767l.981-3.509a1.066,1.066,0,0,0-.882-1.343,7.451,7.451,0,0,0-1-.068C8.559,7.858,3.223,13.481.972,21.533-.35,26.256-.737,33.358,2.518,37.828a9.719,9.719,0,0,0,7.9,3.97h.042A9.455,9.455,0,0,0,13.008,23.24Z" transform="translate(0 -7.858)"/>
    <path id="Path_8" data-name="Path 8" class="cls-1" d="M67.318,27.705a9.477,9.477,0,0,0-5.685-4.465,10.768,10.768,0,0,0-2.975-.434,9.353,9.353,0,0,0-3.732.764c.938-3.434,3.191-9.358,7.68-10.025a1.067,1.067,0,0,0,.87-.767l.981-3.509a1.066,1.066,0,0,0-.882-1.343,7.441,7.441,0,0,0-1-.068c-5.387,0-10.723,5.623-12.975,13.675-1.321,4.724-1.709,11.825,1.547,16.3a9.718,9.718,0,0,0,7.9,3.97h.042a9.455,9.455,0,0,0,8.233-14.094Z" transform="translate(-25.338 -7.858)"/>
  </g>
</svg>
