<svg xmlns="http://www.w3.org/2000/svg" viewBox="0 0 128 128">
  <defs>
    <style>
      .cls-1 {
        fill: #fff;
      }

      .cls-2 {
        fill: #c7d7e2;
        fill-rule: evenodd;
      }
    </style>
  </defs>
  <g id="avatar" transform="translate(8.153 29)">
    <circle id="Ellipse_2" data-name="Ellipse 2" class="cls-1" cx="64" cy="64" r="64" transform="translate(-8.153 -29)"/>
    <path id="Path_9" data-name="Path 9" class="cls-2" d="M38.283,19.958c.018.01.032-.005.049,0,4.107,2.215,7.142,3.628,10.508,4.23v-6.6s7.394,2.639,13.2,4.4c5.564,1.7,13.574,4.4,17.594,4.4h4.4a15.285,15.285,0,0,1-5.07-5.775,26.373,26.373,0,0,0-52.11,5.775v4.4l.037-.128V41.053c0,15.827,14.848,29.322,26.354,29.322,11.411,0,26.391-12.762,26.391-28.59v-11a154.032,154.032,0,0,1-26.391-6.6v4.4a36.933,36.933,0,0,1-17.594-4.4c-1.056-.8-3.416-1.588-2.2-4.4C34.762,17.459,37.321,19.416,38.283,19.958ZM65.331,30.776A3.312,3.312,0,1,1,62,34.088,3.318,3.318,0,0,1,65.331,30.776Zm-24.2,0a3.312,3.312,0,1,1-3.3,3.312A3.3,3.3,0,0,1,41.132,30.776Zm29.7,17.607s-6.288,11-17.594,11-17.594-11-17.594-11H70.832Z"/>
  </g>
</svg>
