<svg xmlns="http://www.w3.org/2000/svg" viewBox="0 0 73.643 58.898">
  <defs>
    <style>
      .cls-1 {
        fill: none;
        stroke: #fff;
        stroke-width: 5px;
      }
    </style>
  </defs>
  <g id="Group_20" data-name="Group 20" transform="translate(2.505 2.5)">
    <path id="Path_7" data-name="Path 7" class="cls-1" d="M20.656,32.284a17.1,17.1,0,0,0-4.725-.69,14.85,14.85,0,0,0-5.925,1.214c1.489-5.452,5.067-14.86,12.194-15.92a1.693,1.693,0,0,0,1.381-1.218L25.139,10.1a1.693,1.693,0,0,0-1.4-2.132,11.832,11.832,0,0,0-1.594-.108c-8.555,0-17.027,8.929-20.6,21.715C-.556,37.074-1.171,48.351,4,55.449c2.893,3.972,7.113,6.093,12.544,6.3h.066a15.015,15.015,0,0,0,4.048-29.471Z" transform="translate(0 -7.858)"/>
    <path id="Path_8" data-name="Path 8" class="cls-1" d="M78.308,39.375a15.05,15.05,0,0,0-9.027-7.091,17.1,17.1,0,0,0-4.725-.69,14.853,14.853,0,0,0-5.926,1.214c1.489-5.452,5.067-14.86,12.2-15.92a1.694,1.694,0,0,0,1.381-1.218L73.765,10.1a1.693,1.693,0,0,0-1.4-2.132,11.817,11.817,0,0,0-1.594-.108c-8.555,0-17.027,8.929-20.6,21.715-2.1,7.5-2.713,18.778,2.457,25.878,2.892,3.971,7.113,6.093,12.543,6.3h.067A15.015,15.015,0,0,0,78.308,39.375Z" transform="translate(-11.646 -7.858)"/>
  </g>
</svg>
