<?xml version="1.0" encoding="UTF-8" standalone="no"?>
<!-- Created with Inkscape (http://www.inkscape.org/) -->

<svg
   xmlns:dc="http://purl.org/dc/elements/1.1/"
   xmlns:cc="http://creativecommons.org/ns#"
   xmlns:rdf="http://www.w3.org/1999/02/22-rdf-syntax-ns#"
   xmlns:svg="http://www.w3.org/2000/svg"
   xmlns="http://www.w3.org/2000/svg"
   xmlns:xlink="http://www.w3.org/1999/xlink"
   xmlns:sodipodi="http://sodipodi.sourceforge.net/DTD/sodipodi-0.dtd"
   xmlns:inkscape="http://www.inkscape.org/namespaces/inkscape"
   width="500"
   height="500"
   id="svg2"
   version="1.1"
   inkscape:version="0.92.3 (2405546, 2018-03-11)"
   sodipodi:docname="fkce.svg"
   inkscape:export-filename="C:\Users\mateu\ownCloud\Firma F&amp;K\logo\fk_logo_przezroczyste.png"
   inkscape:export-xdpi="300.05121"
   inkscape:export-ydpi="300.05121">
  <defs
     id="defs4">
    <linearGradient
       inkscape:collect="always"
       id="linearGradient3703">
      <stop
         style="stop-color:#d40000;stop-opacity:1;"
         offset="0"
         id="stop3705" />
      <stop
         style="stop-color:#ab0000;stop-opacity:1"
         offset="1"
         id="stop3707" />
    </linearGradient>
    <linearGradient
       inkscape:collect="always"
       id="linearGradient3687">
      <stop
         style="stop-color:#000000;stop-opacity:1;"
         offset="0"
         id="stop3689" />
      <stop
         style="stop-color:#000000;stop-opacity:0;"
         offset="1"
         id="stop3691" />
    </linearGradient>
    <linearGradient
       inkscape:collect="always"
       id="linearGradient3679">
      <stop
         style="stop-color:#000000;stop-opacity:1;"
         offset="0"
         id="stop3681" />
      <stop
         style="stop-color:#000000;stop-opacity:0;"
         offset="1"
         id="stop3683" />
    </linearGradient>
    <linearGradient
       inkscape:collect="always"
       id="linearGradient3669">
      <stop
         style="stop-color:#000000;stop-opacity:1;"
         offset="0"
         id="stop3671" />
      <stop
         style="stop-color:#000000;stop-opacity:0;"
         offset="1"
         id="stop3673" />
    </linearGradient>
    <inkscape:perspective
       sodipodi:type="inkscape:persp3d"
       inkscape:vp_x="0 : 526.18109 : 1"
       inkscape:vp_y="0 : 1000 : 0"
       inkscape:vp_z="744.09448 : 526.18109 : 1"
       inkscape:persp3d-origin="372.04724 : 350.78739 : 1"
       id="perspective10" />
    <linearGradient
       inkscape:collect="always"
       xlink:href="#linearGradient3669"
       id="linearGradient3675"
       x1="128.78448"
       y1="96.640549"
       x2="120.39734"
       y2="287.34418"
       gradientUnits="userSpaceOnUse" />
    <linearGradient
       inkscape:collect="always"
       xlink:href="#linearGradient3669"
       id="linearGradient3677"
       gradientUnits="userSpaceOnUse"
       x1="120.20988"
       y1="109.75436"
       x2="120.20988"
       y2="262.60623" />
    <linearGradient
       inkscape:collect="always"
       xlink:href="#linearGradient3679"
       id="linearGradient3685"
       x1="526.43512"
       y1="164.34204"
       x2="869.42529"
       y2="-178.64813"
       gradientUnits="userSpaceOnUse" />
    <linearGradient
       inkscape:collect="always"
       xlink:href="#linearGradient3687"
       id="linearGradient3693"
       x1="516.17871"
       y1="174.59845"
       x2="160.74564"
       y2="530.03149"
       gradientUnits="userSpaceOnUse" />
    <linearGradient
       inkscape:collect="always"
       xlink:href="#linearGradient3703"
       id="linearGradient3709"
       x1="218.74283"
       y1="277.16257"
       x2="404.99557"
       y2="463.41531"
       gradientUnits="userSpaceOnUse" />
  </defs>
  <sodipodi:namedview
     id="base"
     pagecolor="#ffffff"
     bordercolor="#666666"
     borderopacity="1.0"
     inkscape:pageopacity="1"
     inkscape:pageshadow="2"
     inkscape:zoom="0.87926411"
     inkscape:cx="-210.3505"
     inkscape:cy="196.21274"
     inkscape:document-units="px"
     inkscape:current-layer="layer1"
     showgrid="false"
     inkscape:window-width="1920"
     inkscape:window-height="1017"
     inkscape:window-x="-8"
     inkscape:window-y="-8"
     inkscape:window-maximized="1" />
  <metadata
     id="metadata7">
    <rdf:RDF>
      <cc:Work
         rdf:about="">
        <dc:format>image/svg+xml</dc:format>
        <dc:type
           rdf:resource="http://purl.org/dc/dcmitype/StillImage" />
        <dc:title />
      </cc:Work>
    </rdf:RDF>
  </metadata>
  <g
     inkscape:label="Layer 1"
     inkscape:groupmode="layer"
     id="layer1"
     transform="translate(-164.28571,-7.3499891)">
    <g
       transform="scale(0.96914753,1.0318346)"
       style="font-size:247.14651489px;font-style:normal;font-variant:normal;font-weight:normal;font-stretch:normal;text-align:start;line-height:125%;writing-mode:lr-tb;text-anchor:start;fill:#000000;fill-opacity:1;stroke:none;font-family:Agency FB;-inkscape-font-specification:Agency FB;opacity:0.9"
       id="text2818">
      <path
         d="m 286.52765,84.65517 -44.04711,0 0,71.68214 40.54748,0 0,15.08463 -40.54748,0 0,87.24948 -16.7741,0 0,-188.859522 60.82121,0 z"
         style="fill:#000000"
         id="path3027" />
    </g>
    <g
       transform="scale(0.96914753,1.0318346)"
       style="font-size:163.99565125px;font-style:normal;font-variant:normal;font-weight:normal;font-stretch:normal;text-align:start;line-height:125%;writing-mode:lr-tb;text-anchor:start;fill:#000000;fill-opacity:1;stroke:none;font-family:Birch Std;-inkscape-font-specification:Birch Std;opacity:0.9"
       id="text2822">
      <path
         d="m 316.59543,198.1578 c -0.33486,0.003 -0.60818,0.0786 -0.81996,0.22549 -0.21187,0.14697 -0.3212,0.34513 -0.32799,0.59448 0.007,0.23921 0.11612,0.45787 0.32799,0.65597 0.21178,0.19822 0.4851,0.41688 0.81996,0.65598 l 4.91981,3.60785 c 1.80793,1.77969 2.82024,5.07171 3.03692,9.87606 0.21658,4.80444 -0.0588,9.62706 -0.82605,14.46787 -0.76737,4.84087 -1.72299,8.20578 -2.86684,10.09472 -2.0158,-5.35368 -4.09305,-11.86559 -6.23176,-19.53574 -2.13879,-7.67006 -4.05204,-14.87894 -5.73977,-21.62664 l -1.47595,-5.73977 2.13192,-3.11588 c 2.35737,-3.16364 4.85827,-7.65979 7.50271,-13.48847 2.64435,-5.82852 4.07929,-12.70257 4.30483,-20.62219 -0.0376,-5.79433 -1.27441,-10.31781 -3.71036,-13.57047 -2.43603,-3.25241 -5.84572,-4.90601 -10.2291,-4.9608 -4.93008,0.12996 -8.92742,2.2482 -11.99202,6.35475 -3.06465,4.10679 -4.64308,9.42291 -4.73532,15.94837 0.0444,5.44263 0.44755,10.50593 1.20946,15.1899 0.76187,4.68415 1.616,8.80448 2.5624,12.36102 l 1.63993,6.55974 -3.11588,4.09984 c -3.54637,4.38347 -6.53925,9.18711 -8.97865,14.41093 -2.43941,5.22392 -3.71035,11.6265 -3.81284,19.20774 0.0547,8.66435 2.32323,15.60674 6.80573,20.82718 4.48247,5.22047 10.85088,7.89902 19.10525,8.03569 2.6307,-0.041 4.91294,-0.40999 6.84673,-1.10696 1.93372,-0.69697 3.47799,-1.47594 4.63281,-2.33691 1.0625,1.07621 2.29929,1.91667 3.71036,2.5214 1.41098,0.60473 3.01675,0.91222 4.81731,0.92247 4.15103,-0.22208 7.16441,-1.74585 9.04014,-4.57132 1.87562,-2.82547 2.79808,-5.62019 2.76739,-8.38417 -0.0308,-0.56714 -0.2153,-0.86779 -0.55348,-0.90197 -0.33829,-0.0342 -0.64578,0.15718 -0.92246,0.57398 -0.61845,1.08647 -1.59558,2.23442 -2.93138,3.44386 -1.33592,1.20947 -2.76403,1.86544 -4.28433,1.96793 -0.88836,-0.0205 -1.61266,-0.30749 -2.17292,-0.86097 -0.56037,-0.55347 -1.03868,-1.25044 -1.43494,-2.09092 2.9245,-3.39943 5.02908,-8.32607 6.31375,-14.77992 1.28456,-6.4538 1.9132,-15.68526 1.88592,-27.6944 l 5.2478,-4.91981 c 0.32792,-0.18444 0.57391,-0.43043 0.73797,-0.73797 0.16393,-0.30743 0.24592,-0.55342 0.24599,-0.73797 -6e-5,-0.32109 -0.0821,-0.53975 -0.24599,-0.65598 -0.16406,-0.1161 -0.41005,-0.17076 -0.73797,-0.16399 z m -15.57938,13.61146 c 1.44175,5.72957 3.23201,11.98182 5.37079,18.75676 2.13871,6.77501 4.33896,12.65827 6.60074,17.64981 -0.74826,0.82681 -1.71172,1.46912 -2.89039,1.92692 -1.17874,0.45783 -2.51118,0.69015 -3.99734,0.69698 -3.75138,-0.0683 -7.03125,-2.14557 -9.83962,-6.23176 -2.8084,-4.08615 -4.28434,-9.77126 -4.42782,-17.05533 0.0137,-5.24775 0.64229,-9.83957 1.88592,-13.77545 1.2436,-3.9358 3.0202,-7.21567 5.32979,-9.83962 z m 3.60785,-30.99477 -2.62389,-10.3316 c -1.84154,-7.21904 -2.38135,-13.44395 -1.61944,-18.67476 0.76187,-5.2306 3.05094,-7.97066 6.86723,-8.22018 2.47696,0.10261 4.12372,1.25057 4.94031,3.44387 0.81651,2.19352 1.19233,4.81741 1.12745,7.87169 -0.0581,4.60216 -0.76192,9.00948 -2.11141,13.22197 -1.34957,4.21267 -2.99633,7.67703 -4.94031,10.3931 z"
         style="fill:#000000;font-family:Birch Std;-inkscape-font-specification:Birch Std"
         id="path3030" />
    </g>
    <g
       transform="scale(0.96914753,1.0318346)"
       style="font-size:247.14651489px;font-style:normal;font-variant:normal;font-weight:normal;font-stretch:normal;text-align:start;line-height:125%;writing-mode:lr-tb;text-anchor:start;fill:#000000;fill-opacity:1;stroke:none;font-family:Agency FB;-inkscape-font-specification:Agency FB;opacity:0.9"
       id="text2830">
      <path
         d="m 426.78192,258.67142 -18.46359,0 -43.5644,-90.74911 0,90.74911 -16.7741,0 0,-188.859522 16.7741,0 0,84.835942 39.58206,-84.835942 18.22223,0 0,1.086093 -42.71966,89.904369 z"
         style="fill:#000000"
         id="path3024" />
    </g>
    <rect
       y="277.16257"
       x="218.74283"
       height="92.307693"
       width="92.307693"
       id="rect2834"
       style="fill:url(#linearGradient3709);fill-opacity:1;stroke:none;opacity:0.9" />
    <rect
       style="fill:#800000;fill-opacity:1;stroke:none;opacity:0.9"
       id="rect2840"
       width="92.307693"
       height="92.307693"
       x="321.30695"
       y="277.16257" />
    <rect
       y="277.16257"
       x="423.87103"
       height="92.307693"
       width="92.307693"
       id="rect2842"
       style="fill:#d40000;fill-opacity:1;stroke:none;opacity:0.9" />
    <rect
       style="fill:#800000;fill-opacity:1;stroke:none;opacity:0.9"
       id="rect2844"
       width="92.307693"
       height="92.307693"
       x="526.43512"
       y="277.16257" />
    <rect
       style="fill:url(#linearGradient3693);fill-opacity:1;stroke:none;opacity:0.9"
       id="rect2846"
       width="92.307693"
       height="92.307693"
       x="423.87103"
       y="174.59845" />
    <rect
       y="174.59845"
       x="526.43512"
       height="92.307693"
       width="92.307693"
       id="rect2848"
       style="fill:#d40000;fill-opacity:1;stroke:none;opacity:0.9" />
    <rect
       y="72.034355"
       x="423.87103"
       height="92.307693"
       width="92.307693"
       id="rect2850"
       style="fill:#d40000;fill-opacity:1;stroke:none;opacity:0.9" />
    <rect
       style="fill:url(#linearGradient3685);fill-opacity:1;stroke:#4d4d4d;opacity:0.9"
       id="rect2852"
       width="92.307693"
       height="92.307693"
       x="526.43512"
       y="72.034355" />
    <g
       aria-label="Consulting Engineers"
       style="font-style:normal;font-weight:normal;line-height:0%;font-family:'Bitstream Vera Sans';fill:#000000;fill-opacity:1;stroke:none"
       id="text2862">
      <path
         d="m 237.64545,424.8007 q 0,1.47724 -0.96472,2.41182 -0.96473,0.93457 -2.44197,0.93457 h -12.14953 q -1.47724,0 -2.41182,-0.93457 -0.93458,-0.93458 -0.93458,-2.41182 v -40.4884 q 0,-1.47723 0.93458,-2.41181 0.93458,-0.93458 2.41182,-0.93458 h 12.14953 q 1.47724,0 2.44197,0.93458 0.96472,0.93458 0.96472,2.41181 v 10.97378 h -4.22068 v -10.612 h -10.49141 v 39.76484 h 10.49141 v -11.60687 h 4.22068 z"
         style="font-style:normal;font-variant:normal;font-weight:normal;font-stretch:normal;font-size:61.74253845px;line-height:125%;font-family:'Agency FB';-inkscape-font-specification:'Agency FB';text-align:start;writing-mode:lr-tb;text-anchor:start"
         id="path846" />
      <path
         d="m 261.40186,424.7404 q 0,3.40669 -3.40669,3.40669 h -10.06934 q -3.37655,0 -3.37655,-3.40669 v -22.52035 q 0,-3.40669 3.37655,-3.40669 h 10.06934 q 3.40669,0 3.40669,3.40669 z m -4.00965,-0.12059 v -22.27917 h -8.83328 v 22.27917 z"
         style="font-style:normal;font-variant:normal;font-weight:normal;font-stretch:normal;font-size:61.74253845px;line-height:125%;font-family:'Agency FB';-inkscape-font-specification:'Agency FB';text-align:start;writing-mode:lr-tb;text-anchor:start"
         id="path848" />
      <path
         d="m 284.79649,428.14709 h -4.00964 v -25.74615 l -8.83329,0.24118 v 25.50497 h -4.00964 v -29.33373 h 4.00964 v 0.81399 q 2.35153,-0.30148 4.7332,-0.6331 2.89418,-0.36178 4.76334,-0.36178 3.34639,0 3.34639,3.2861 z"
         style="font-style:normal;font-variant:normal;font-weight:normal;font-stretch:normal;font-size:61.74253845px;line-height:125%;font-family:'Agency FB';-inkscape-font-specification:'Agency FB';text-align:start;writing-mode:lr-tb;text-anchor:start"
         id="path850" />
      <path
         d="m 307.13595,424.7404 q 0,3.40669 -3.40669,3.40669 h -9.19505 q -3.4067,0 -3.4067,-3.40669 v -6.66265 h 3.94935 v 6.60236 h 8.10974 v -5.84866 l -10.49141,-8.5921 q -1.50738,-1.20591 -1.50738,-3.13537 v -4.88393 q 0,-3.40669 3.40669,-3.40669 h 9.07447 q 3.40669,0 3.40669,3.40669 v 5.84866 h -3.88906 v -5.78836 h -8.10974 v 5.12511 l 10.58186,8.5921 q 1.47723,1.17576 1.47723,3.19566 z"
         style="font-style:normal;font-variant:normal;font-weight:normal;font-stretch:normal;font-size:61.74253845px;line-height:125%;font-family:'Agency FB';-inkscape-font-specification:'Agency FB';text-align:start;writing-mode:lr-tb;text-anchor:start"
         id="path852" />
      <path
         d="m 330.31956,428.14709 h -3.94935 v -0.81398 q -2.41182,0.33162 -4.79349,0.6331 -2.89418,0.36177 -4.79349,0.36177 -3.25596,0 -3.25596,-3.25595 v -26.25867 h 3.94936 v 25.74616 l 8.89358,-0.24119 v -25.50497 h 3.94935 z"
         style="font-style:normal;font-variant:normal;font-weight:normal;font-stretch:normal;font-size:61.74253845px;line-height:125%;font-family:'Agency FB';-inkscape-font-specification:'Agency FB';text-align:start;writing-mode:lr-tb;text-anchor:start"
         id="path854" />
      <path
         d="m 341.11244,428.14709 h -3.94935 v -47.18118 h 3.94935 z"
         style="font-style:normal;font-variant:normal;font-weight:normal;font-stretch:normal;font-size:61.74253845px;line-height:125%;font-family:'Agency FB';-inkscape-font-specification:'Agency FB';text-align:start;writing-mode:lr-tb;text-anchor:start"
         id="path856" />
      <path
         d="m 358.44738,428.14709 h -5.69792 q -3.37655,0 -3.37655,-3.40669 v -22.39976 h -3.52728 v -3.52728 h 3.52728 v -9.13476 h 3.94936 v 9.13476 h 5.12511 v 3.52728 h -5.12511 v 22.27917 h 5.12511 z"
         style="font-style:normal;font-variant:normal;font-weight:normal;font-stretch:normal;font-size:61.74253845px;line-height:125%;font-family:'Agency FB';-inkscape-font-specification:'Agency FB';text-align:start;writing-mode:lr-tb;text-anchor:start"
         id="path858" />
      <path
         d="m 367.82332,392.39189 h -4.06994 v -5.06481 h 4.06994 z m -0.0603,35.7552 h -3.94935 v -29.33373 h 3.94935 z"
         style="font-style:normal;font-variant:normal;font-weight:normal;font-stretch:normal;font-size:61.74253845px;line-height:125%;font-family:'Agency FB';-inkscape-font-specification:'Agency FB';text-align:start;writing-mode:lr-tb;text-anchor:start"
         id="path860" />
      <path
         d="m 391.39884,428.14709 h -4.00965 v -25.74615 l -8.83328,0.24118 v 25.50497 h -4.00965 v -29.33373 h 4.00965 v 0.81399 q 2.35152,-0.30148 4.73319,-0.6331 2.89419,-0.36178 4.76334,-0.36178 3.3464,0 3.3464,3.2861 z"
         style="font-style:normal;font-variant:normal;font-weight:normal;font-stretch:normal;font-size:61.74253845px;line-height:125%;font-family:'Agency FB';-inkscape-font-specification:'Agency FB';text-align:start;writing-mode:lr-tb;text-anchor:start"
         id="path862" />
      <path
         d="m 414.61259,435.86491 q 0,3.40669 -3.40669,3.40669 h -9.52668 q -3.46699,0 -3.46699,-4.31112 0,-0.51251 0.0302,-1.53753 0.0603,-0.99488 0.0603,-1.44709 h 3.94935 v 3.88905 h 8.38106 v -7.71782 h -6.60235 q -2.68314,0 -4.46186,-1.77871 -1.77872,-1.80886 -1.77872,-4.52216 v -17.15405 q 0,-2.59271 1.56769,-4.31113 1.56768,-1.74857 4.13023,-1.74857 0.6934,0 7.14501,0.99488 v -0.81399 h 3.9795 z m -3.9795,-11.2451 v -22.15858 q -4.76334,-0.30147 -5.54718,-0.30147 -3.31625,0 -3.31625,3.37654 v 15.70697 q 0,3.37654 3.31625,3.37654 z"
         style="font-style:normal;font-variant:normal;font-weight:normal;font-stretch:normal;font-size:61.74253845px;line-height:125%;font-family:'Agency FB';-inkscape-font-specification:'Agency FB';text-align:start;writing-mode:lr-tb;text-anchor:start"
         id="path864" />
      <path
         d="M 449.25233,428.14709 H 433.7564 v -47.18118 h 15.31504 v 3.70817 h -11.12451 v 17.60627 h 10.12963 v 3.76846 h -10.12963 v 18.39011 h 11.3054 z"
         style="font-style:normal;font-variant:normal;font-weight:normal;font-stretch:normal;font-size:61.74253845px;line-height:125%;font-family:'Agency FB';-inkscape-font-specification:'Agency FB';text-align:start;writing-mode:lr-tb;text-anchor:start"
         id="path866" />
      <path
         d="m 472.19474,428.14709 h -4.00965 v -25.74615 l -8.83328,0.24118 v 25.50497 h -4.00965 v -29.33373 h 4.00965 v 0.81399 q 2.35152,-0.30148 4.73319,-0.6331 2.89418,-0.36178 4.76334,-0.36178 3.3464,0 3.3464,3.2861 z"
         style="font-style:normal;font-variant:normal;font-weight:normal;font-stretch:normal;font-size:61.74253845px;line-height:125%;font-family:'Agency FB';-inkscape-font-specification:'Agency FB';text-align:start;writing-mode:lr-tb;text-anchor:start"
         id="path868" />
      <path
         d="m 495.40851,435.86491 q 0,3.40669 -3.4067,3.40669 h -9.52668 q -3.46698,0 -3.46698,-4.31112 0,-0.51251 0.0301,-1.53753 0.0603,-0.99488 0.0603,-1.44709 h 3.94935 v 3.88905 h 8.38107 v -7.71782 h -6.60235 q -2.68315,0 -4.46187,-1.77871 -1.77871,-1.80886 -1.77871,-4.52216 v -17.15405 q 0,-2.59271 1.56768,-4.31113 1.56768,-1.74857 4.13024,-1.74857 0.69339,0 7.14501,0.99488 v -0.81399 h 3.9795 z m -3.9795,-11.2451 v -22.15858 q -4.76334,-0.30147 -5.54718,-0.30147 -3.31625,0 -3.31625,3.37654 v 15.70697 q 0,3.37654 3.31625,3.37654 z"
         style="font-style:normal;font-variant:normal;font-weight:normal;font-stretch:normal;font-size:61.74253845px;line-height:125%;font-family:'Agency FB';-inkscape-font-specification:'Agency FB';text-align:start;writing-mode:lr-tb;text-anchor:start"
         id="path870" />
      <path
         d="m 506.26166,392.39189 h -4.06994 v -5.06481 h 4.06994 z m -0.0603,35.7552 h -3.94935 v -29.33373 h 3.94935 z"
         style="font-style:normal;font-variant:normal;font-weight:normal;font-stretch:normal;font-size:61.74253845px;line-height:125%;font-family:'Agency FB';-inkscape-font-specification:'Agency FB';text-align:start;writing-mode:lr-tb;text-anchor:start"
         id="path872" />
      <path
         d="m 529.8372,428.14709 h -4.00965 v -25.74615 l -8.83328,0.24118 v 25.50497 h -4.00965 v -29.33373 h 4.00965 v 0.81399 q 2.35152,-0.30148 4.73319,-0.6331 2.89418,-0.36178 4.76334,-0.36178 3.3464,0 3.3464,3.2861 z"
         style="font-style:normal;font-variant:normal;font-weight:normal;font-stretch:normal;font-size:61.74253845px;line-height:125%;font-family:'Agency FB';-inkscape-font-specification:'Agency FB';text-align:start;writing-mode:lr-tb;text-anchor:start"
         id="path874" />
      <path
         d="m 552.7796,424.7404 q 0,3.40669 -3.37654,3.40669 h -9.64727 q -3.37655,0 -3.37655,-3.40669 v -22.52035 q 0,-3.40669 3.37655,-3.40669 h 9.64727 q 3.37654,0 3.37654,3.40669 v 10.55171 l -1.35664,1.41694 H 540.2683 v 10.612 h 8.62225 v -5.3663 h 3.88905 z m -3.88905,-13.74736 v -8.83328 h -8.62225 v 8.83328 z"
         style="font-style:normal;font-variant:normal;font-weight:normal;font-stretch:normal;font-size:61.74253845px;line-height:125%;font-family:'Agency FB';-inkscape-font-specification:'Agency FB';text-align:start;writing-mode:lr-tb;text-anchor:start"
         id="path876" />
      <path
         d="m 575.81247,424.7404 q 0,3.40669 -3.37654,3.40669 h -9.64728 q -3.37654,0 -3.37654,-3.40669 v -22.52035 q 0,-3.40669 3.37654,-3.40669 h 9.64728 q 3.37654,0 3.37654,3.40669 v 10.55171 l -1.35665,1.41694 h -11.15465 v 10.612 h 8.62224 v -5.3663 h 3.88906 z m -3.88906,-13.74736 v -8.83328 h -8.62224 v 8.83328 z"
         style="font-style:normal;font-variant:normal;font-weight:normal;font-stretch:normal;font-size:61.74253845px;line-height:125%;font-family:'Agency FB';-inkscape-font-specification:'Agency FB';text-align:start;writing-mode:lr-tb;text-anchor:start"
         id="path878" />
      <path
         d="m 597.79017,408.46063 h -3.94935 v -6.05969 l -7.3862,0.24118 v 25.50497 h -4.00964 v -29.33373 h 4.00964 v 0.81399 q 1.98975,-0.30148 4.00965,-0.6331 2.41182,-0.36178 4.00965,-0.36178 3.31625,0 3.31625,3.2861 z"
         style="font-style:normal;font-variant:normal;font-weight:normal;font-stretch:normal;font-size:61.74253845px;line-height:125%;font-family:'Agency FB';-inkscape-font-specification:'Agency FB';text-align:start;writing-mode:lr-tb;text-anchor:start"
         id="path880" />
      <path
         d="m 618.74284,424.7404 q 0,3.40669 -3.40669,3.40669 h -9.19506 q -3.40669,0 -3.40669,-3.40669 v -6.66265 h 3.94935 v 6.60236 h 8.10974 v -5.84866 l -10.49141,-8.5921 q -1.50738,-1.20591 -1.50738,-3.13537 v -4.88393 q 0,-3.40669 3.40669,-3.40669 h 9.07446 q 3.4067,0 3.4067,3.40669 v 5.84866 h -3.88906 v -5.78836 h -8.10974 v 5.12511 l 10.58185,8.5921 q 1.47724,1.17576 1.47724,3.19566 z"
         style="font-style:normal;font-variant:normal;font-weight:normal;font-stretch:normal;font-size:61.74253845px;line-height:125%;font-family:'Agency FB';-inkscape-font-specification:'Agency FB';text-align:start;writing-mode:lr-tb;text-anchor:start"
         id="path882" />
    </g>
  </g>
</svg>
