<?xml version="1.0" encoding="UTF-8" standalone="no"?>
<svg
   xmlns:dc="http://purl.org/dc/elements/1.1/"
   xmlns:cc="http://creativecommons.org/ns#"
   xmlns:rdf="http://www.w3.org/1999/02/22-rdf-syntax-ns#"
   xmlns:svg="http://www.w3.org/2000/svg"
   xmlns="http://www.w3.org/2000/svg"
   xmlns:xlink="http://www.w3.org/1999/xlink"
   xmlns:sodipodi="http://sodipodi.sourceforge.net/DTD/sodipodi-0.dtd"
   xmlns:inkscape="http://www.inkscape.org/namespaces/inkscape"
   version="1.1"
   width="311.9313"
   height="118.76884"
   viewBox="0 0 311.9313 118.76884"
   id="svg4"
   sodipodi:docname="services.svg"
   inkscape:version="0.92.3 (2405546, 2018-03-11)">
  <metadata
     id="metadata10">
    <rdf:RDF>
      <cc:Work
         rdf:about="">
        <dc:format>image/svg+xml</dc:format>
        <dc:type
           rdf:resource="http://purl.org/dc/dcmitype/StillImage" />
        <dc:title />
      </cc:Work>
    </rdf:RDF>
  </metadata>
  <defs
     id="defs8">
    <linearGradient
       inkscape:collect="always"
       id="linearGradient4577">
      <stop
         style="stop-color:#ffffff;stop-opacity:1;"
         offset="0"
         id="stop4573" />
      <stop
         style="stop-color:#ffffff;stop-opacity:0;"
         offset="1"
         id="stop4575" />
    </linearGradient>
    <linearGradient
       inkscape:collect="always"
       xlink:href="#linearGradient4577"
       id="linearGradient4579"
       x1="-15.842938"
       y1="28.11364"
       x2="48.03904"
       y2="28.215334"
       gradientUnits="userSpaceOnUse" />
    <linearGradient
       inkscape:collect="always"
       xlink:href="#linearGradient4577"
       id="linearGradient4597"
       x1="-16.482531"
       y1="28.150728"
       x2="46.541435"
       y2="28.186684"
       gradientUnits="userSpaceOnUse"
       gradientTransform="translate(1.8080676)" />
  </defs>
  <sodipodi:namedview
     pagecolor="#aaaaaa"
     bordercolor="#666666"
     borderopacity="1"
     objecttolerance="10"
     gridtolerance="10"
     guidetolerance="10"
     inkscape:pageopacity="1"
     inkscape:pageshadow="2"
     inkscape:window-width="1920"
     inkscape:window-height="1017"
     id="namedview6"
     showgrid="false"
     inkscape:zoom="9.8333332"
     inkscape:cx="76.803256"
     inkscape:cy="11.081913"
     inkscape:window-x="-8"
     inkscape:window-y="-8"
     inkscape:window-maximized="1"
     inkscape:current-layer="svg4"
     fit-margin-top="0"
     fit-margin-left="0"
     fit-margin-right="0"
     fit-margin-bottom="0" />
  <path
     d="m 189.2346,94.324682 -62.96432,-0.25708 c -10.16786,-0.0415 -20.77105,-10.009523 -20.77105,-23.528681 0,-12.501153 9.16037,-22.630174 19.32832,-22.630174 h 3.2679 c 3.03776,-10.410698 16.73483,-17.673945 28.24152,-17.673945 13.98092,0 29.26103,12.141623 29.26103,25.831314 v 2.253397 h 6.90401 c 7.62596,0 14.84901,8.503348 14.84901,16.606705 0,10.139368 -10.49046,19.398464 -18.11642,19.398464 m 0.56071,-41.289531 c -3.12981,-15.503377 -17.07591,-27.17598 -33.82965,-27.17598 -13.30173,0 -27.06373,7.772898 -32.81708,18.544141 -13.85405,1.487241 -22.41502,12.552752 -22.41502,26.523821 0,14.934206 12.36412,27.040779 27.61605,27.040779 h 59.83477 c 12.70994,-1e-5 23.01338,-10.088815 23.01338,-22.533984 0,-11.897942 -9.43549,-21.542486 -21.40245,-22.398777 z"
     id="path2"
     inkscape:connector-curvature="0"
     style="fill:#ffffff;fill-opacity:1;stroke-width:4.55448294"
     sodipodi:nodetypes="cssscsscssccscssssc" />
  <path
     inkscape:connector-curvature="0"
     d="m 145.15341,7.7378379 v 2.6825511 h 2.68256 V 7.7378379 h -2.68256 m 4.02384,0 v 2.6825511 h 2.68256 V 7.7378379 h -2.68256 m 0,4.0238251 v 2.682551 h 2.68256 v -2.682551 h -2.68256 m 0,4.023825 v 2.682551 h 2.68256 v -2.682551 h -2.68256 m -1.34128,2.682551 v -2.682551 h -2.68256 v 2.682551 h 2.68256 m -4.02383,0 v -2.682551 h -2.68253 v 2.682551 h 2.68253 M 141.12961,6.3965622 h 10.7302 c 0.74076,0 1.34126,0.6005096 1.34126,1.3412757 V 18.468039 c 0,0.740766 -0.6005,1.341276 -1.34126,1.341276 h -10.7302 c -0.7243,0 -1.3413,-0.603575 -1.3413,-1.341276 V 7.7378379 c 0,-0.7407661 0.60052,-1.3412757 1.3413,-1.3412757 z"
     id="path2-6"
     style="fill:#454b54;fill-opacity:1;stroke-width:0.67063755"
     sodipodi:nodetypes="ccccccccccccccccccccccccccccccsssssssss" />
  <text
     xml:space="preserve"
     style="font-style:normal;font-variant:normal;font-weight:normal;font-stretch:normal;font-size:22.44223404px;line-height:1.25;font-family:'Segoe UI';-inkscape-font-specification:'Segoe UI';letter-spacing:0px;word-spacing:0px;fill:#454b54;fill-opacity:1;stroke:none;stroke-width:0.5610559"
     x="154.34154"
     y="15.018166"
     id="text866"><tspan
       sodipodi:role="line"
       id="tspan864"
       x="154.34154"
       y="15.018166"
       style="font-style:normal;font-variant:normal;font-weight:600;font-stretch:normal;font-size:6.66666651px;font-family:'Segoe UI';-inkscape-font-specification:'Segoe UI Semi-Bold';fill:#454b54;fill-opacity:1;stroke-width:0.5610559">Creating 3D models</tspan></text>
  <text
     xml:space="preserve"
     style="font-style:normal;font-variant:normal;font-weight:normal;font-stretch:normal;font-size:22.44223404px;line-height:1.25;font-family:'Segoe UI';-inkscape-font-specification:'Segoe UI';letter-spacing:0px;word-spacing:0px;fill:#454b54;fill-opacity:1;stroke:none;stroke-width:0.5610559"
     x="50.037697"
     y="40.75462"
     id="text4699"><tspan
       sodipodi:role="line"
       x="50.037697"
       y="40.75462"
       style="font-style:normal;font-variant:normal;font-weight:600;font-stretch:normal;font-size:6.66666651px;font-family:'Segoe UI';-inkscape-font-specification:'Segoe UI Semi-Bold';fill:#454b54;fill-opacity:1;stroke-width:0.5610559"
       id="tspan846">Generating </tspan></text>
  <path
     inkscape:connector-curvature="0"
     id="path817"
     d="M 47.115188,47.254206 H 35.923094 V 36.062113 h 11.192094 m 0,-1.598869 H 35.923094 a 1.5988703,1.5988703 0 0 0 -1.598873,1.598869 v 11.192093 a 1.5988703,1.5988703 0 0 0 1.598873,1.59887 h 11.192094 a 1.5988703,1.5988703 0 0 0 1.598869,-1.59887 V 36.062113 a 1.5988703,1.5988703 0 0 0 -1.598869,-1.598869 m -4.029156,7.426751 -2.198444,2.83 -1.566893,-1.886665 -2.198447,2.822005 h 8.793786 z"
     style="fill:#454b54;fill-opacity:1;stroke-width:0.79943526" />
  <text
     xml:space="preserve"
     style="font-style:normal;font-variant:normal;font-weight:normal;font-stretch:normal;font-size:22.44223404px;line-height:1.25;font-family:'Segoe UI';-inkscape-font-specification:'Segoe UI';letter-spacing:0px;word-spacing:0px;fill:#454b54;fill-opacity:1;stroke:none;stroke-width:0.5610559"
     x="215.10443"
     y="40.945381"
     id="text866-2"><tspan
       sodipodi:role="line"
       id="tspan864-7"
       x="215.10443"
       y="40.945381"
       style="font-style:normal;font-variant:normal;font-weight:600;font-stretch:normal;font-size:6.66666651px;font-family:'Segoe UI';-inkscape-font-specification:'Segoe UI Semi-Bold';fill:#454b54;fill-opacity:1;stroke-width:0.5610559">Creating</tspan></text>
  <path
     inkscape:connector-curvature="0"
     d="m 212.09461,42.845377 1.66402,1.30914 c 0.1498,0.118303 0.18935,0.331223 0.0947,0.504726 l -1.57727,2.728686 c -0.0947,0.173489 -0.30757,0.23659 -0.48107,0.173489 l -1.96372,-0.796519 c -0.41009,0.315452 -0.83596,0.575702 -1.33279,0.780748 l -0.2918,2.089887 c -0.0316,0.18925 -0.19713,0.331228 -0.39431,0.331228 h -3.15455 c -0.19715,0 -0.36278,-0.141952 -0.39431,-0.331228 l -0.29181,-2.089887 c -0.49684,-0.197179 -0.92269,-0.465296 -1.33279,-0.780748 l -1.9637,0.796519 c -0.17357,0.06307 -0.38645,0 -0.48109,-0.173489 l -1.57727,-2.728686 c -0.10242,-0.17349 -0.0551,-0.386433 0.0946,-0.504726 l 1.66404,-1.30914 -0.0551,-0.764978 0.0551,-0.788636 -1.66404,-1.285479 c -0.1498,-0.118304 -0.19713,-0.331228 -0.0946,-0.504729 l 1.57727,-2.728686 c 0.0947,-0.17349 0.30758,-0.244474 0.48109,-0.17349 l 1.9637,0.788637 c 0.4101,-0.307567 0.83595,-0.575706 1.33279,-0.772864 l 0.29181,-2.08989 c 0.0315,-0.189249 0.19713,-0.331226 0.39431,-0.331226 h 3.15455 c 0.19713,0 0.36278,0.141952 0.39431,0.331226 l 0.2918,2.08989 c 0.49683,0.19716 0.9227,0.465297 1.33279,0.772864 l 1.9637,-0.788637 c 0.17358,-0.07099 0.38645,0 0.48109,0.17349 l 1.57727,2.728686 c 0.0947,0.173491 0.0551,0.386433 -0.0947,0.504729 l -1.66404,1.285479 0.0551,0.788636 -0.0551,0.764978 m -10.19706,-0.764978 c 0,0.45741 0.0709,0.891161 0.19713,1.309138 l -1.63248,1.340682 0.59148,1.025229 1.98737,-0.741316 c 0.58358,0.638794 1.36434,1.104089 2.2476,1.301248 l 0.34701,2.074115 h 1.18296 l 0.34699,-2.074115 c 0.88328,-0.18925 1.67191,-0.65457 2.26339,-1.293367 l 1.97948,0.741323 0.59147,-1.02523 -1.63245,-1.340684 c 0.13402,-0.417975 0.20505,-0.859613 0.20505,-1.317023 0,-0.449523 -0.0709,-0.891159 -0.19714,-1.30125 l 1.62459,-1.332799 -0.59148,-1.025227 -1.9716,0.733433 c -0.59147,-0.646681 -1.3801,-1.111978 -2.26338,-1.30914 l -0.347,-2.074114 h -1.18295 l -0.347,2.074114 c -0.88328,0.19714 -1.67191,0.662459 -2.26338,1.30914 l -1.9716,-0.74132 -0.59148,1.025229 1.62459,1.340684 c -0.12623,0.410091 -0.19714,0.851727 -0.19714,1.30125 m 4.33751,-2.760229 a 2.7602299,2.7602299 0 0 1 2.76022,2.760229 2.7602299,2.7602299 0 0 1 -2.76022,2.76023 2.7602299,2.7602299 0 0 1 -2.76023,-2.76023 2.7602299,2.7602299 0 0 1 2.76023,-2.760229 m 0,1.577272 a 1.1829556,1.1829556 0 0 0 -1.18296,1.182957 1.1829556,1.1829556 0 0 0 1.18296,1.182957 1.1829556,1.1829556 0 0 0 1.18294,-1.182957 1.1829556,1.1829556 0 0 0 -1.18294,-1.182957 z"
     id="path2-5"
     style="fill:#454b54;fill-opacity:1;stroke-width:0.7886371" />
  <text
     id="text4687"
     y="94.269951"
     x="228.00993"
     style="font-style:normal;font-variant:normal;font-weight:normal;font-stretch:normal;font-size:22.44223404px;line-height:1.25;font-family:'Segoe UI';-inkscape-font-specification:'Segoe UI';letter-spacing:0px;word-spacing:0px;fill:#454b54;fill-opacity:1;stroke:none;stroke-width:0.5610559"
     xml:space="preserve"><tspan
       style="font-style:normal;font-variant:normal;font-weight:600;font-stretch:normal;font-size:6.66666651px;font-family:'Segoe UI';-inkscape-font-specification:'Segoe UI Semi-Bold';fill:#454b54;fill-opacity:1;stroke-width:0.5610559"
       y="94.269951"
       x="228.00993"
       id="tspan4685"
       sodipodi:role="line">Sharing </tspan></text>
  <path
     inkscape:connector-curvature="0"
     d="m 220.43832,88.780274 v 4.040677 c -7.07118,1.01017 -10.10168,6.061015 -11.11186,11.111869 2.52543,-3.53559 6.06102,-5.15187 11.11186,-5.15187 v 4.14169 l 7.07118,-7.07118 -7.07118,-7.071186 m 2.02034,4.879118 2.19207,2.192068 -2.19207,2.192065 v -1.282913 h -2.02034 c -2.09104,0 -3.96995,0.383863 -5.71754,0.959659 1.41422,-1.404134 3.23252,-2.505218 6.00038,-2.878982 l 1.7375,-0.272745 z"
     id="path2-67"
     style="fill:#454b54;fill-opacity:1;stroke-width:1.01016939" />
  <text
     id="text4759"
     y="104.75537"
     x="52.4856"
     style="font-style:normal;font-variant:normal;font-weight:normal;font-stretch:normal;font-size:22.44223404px;line-height:1.25;font-family:'Segoe UI';-inkscape-font-specification:'Segoe UI';letter-spacing:0px;word-spacing:0px;fill:#454b54;fill-opacity:1;stroke:none;stroke-width:0.5610559"
     xml:space="preserve"><tspan
       style="font-style:normal;font-variant:normal;font-weight:600;font-stretch:normal;font-size:6.66666651px;font-family:'Segoe UI';-inkscape-font-specification:'Segoe UI Semi-Bold';fill:#454b54;fill-opacity:1;stroke-width:0.5610559"
       y="104.75537"
       x="52.4856"
       id="tspan4757"
       sodipodi:role="line">Creating SHEVS</tspan></text>
  <path
     inkscape:connector-curvature="0"
     d="m 47.723945,97.463994 c -0.25352,0.07149 -0.473038,0.238644 -0.614872,0.482216 l -0.98939,1.766794 4.418816,2.479986 0.993056,-1.75381 C 51.80974,99.932657 51.635566,99.3151 51.13919,99.048087 l -2.645525,-1.492426 c -0.248173,-0.13343 -0.5227,-0.161334 -0.76972,-0.09166 m -1.935616,2.840699 -3.778386,6.757 1.715444,-0.2874 0.53688,1.45559 1.513277,-0.30748 0.657887,1.61094 3.778387,-6.757 m -8.41488,4.99807 0.08904,4.66966 4.027096,-2.39202 -0.552051,-1.36009 -1.532781,0.31295 -0.542383,-1.47509"
     id="path2-69"
     style="fill:#454b54;fill-opacity:1;stroke-width:0.67540628" />
  <circle
     style="opacity:1;fill:#454b54;fill-opacity:1;stroke:none;stroke-width:1.94417584;stroke-opacity:1"
     id="path907"
     cx="138.63255"
     cy="62.823132"
     r="2.6562769" />
  <path
     style="fill:none;stroke:#454b54;stroke-width:0.75;stroke-linecap:butt;stroke-linejoin:miter;stroke-miterlimit:4;stroke-dasharray:1, 1;stroke-dashoffset:0;stroke-opacity:1"
     d="M 137.26453,62.528203 46.301629,47.96607"
     id="path909"
     inkscape:connector-curvature="0"
     sodipodi:nodetypes="cc" />
  <circle
     r="4.1779585"
     cy="43.56741"
     cx="146.45384"
     id="circle911"
     style="opacity:1;fill:#454b54;fill-opacity:1;stroke:none;stroke-width:3.05792141;stroke-opacity:1" />
  <path
     style="fill:#c7d7e2;fill-opacity:1;stroke:#454b54;stroke-width:0.75;stroke-linecap:butt;stroke-linejoin:miter;stroke-miterlimit:4;stroke-dasharray:1, 1;stroke-dashoffset:0;stroke-opacity:1"
     d="m 146.63791,43.342761 -0.0693,-23.70827"
     id="path913"
     inkscape:connector-curvature="0"
     sodipodi:nodetypes="cc" />
  <circle
     r="4.2572236"
     cy="74.668312"
     cx="117.82199"
     id="circle915"
     style="opacity:1;fill:#454b54;fill-opacity:1;stroke:none;stroke-width:3.11593676;stroke-opacity:1" />
  <path
     style="fill:none;stroke:#454b54;stroke-width:0.75;stroke-linecap:butt;stroke-linejoin:miter;stroke-miterlimit:4;stroke-dasharray:1, 1;stroke-dashoffset:0;stroke-opacity:1"
     d="M 116.69739,74.956966 52.276659,99.439383"
     id="path917"
     inkscape:connector-curvature="0"
     sodipodi:nodetypes="cc" />
  <circle
     r="3.1610093"
     cy="83.635208"
     cx="164.14873"
     id="circle921"
     style="opacity:1;fill:#454b54;fill-opacity:1;stroke:none;stroke-width:2.31359839;stroke-opacity:1" />
  <path
     sodipodi:nodetypes="cc"
     inkscape:connector-curvature="0"
     id="path929"
     d="m 169.50503,61.46387 30.0578,-15.516334"
     style="fill:#c7d7e2;fill-opacity:1;stroke:#454b54;stroke-width:0.75;stroke-linecap:butt;stroke-linejoin:miter;stroke-miterlimit:4;stroke-dasharray:1, 1;stroke-dashoffset:0;stroke-opacity:1" />
  <circle
     style="opacity:1;fill:#009aff;fill-opacity:1;stroke:none;stroke-width:4.39770269;stroke-opacity:1"
     id="circle919"
     cx="169.84366"
     cy="61.669102"
     r="6.0084667" />
  <path
     style="fill:#c7d7e2;fill-opacity:1;stroke:#454b54;stroke-width:0.75;stroke-linecap:butt;stroke-linejoin:miter;stroke-miterlimit:4;stroke-dasharray:1, 1;stroke-dashoffset:0;stroke-opacity:1"
     d="m 164.03994,83.396161 47.44562,15.185674"
     id="path931"
     inkscape:connector-curvature="0"
     sodipodi:nodetypes="cc" />
  <text
     xml:space="preserve"
     style="font-style:normal;font-weight:normal;font-size:35.02980042px;line-height:1.25;font-family:sans-serif;letter-spacing:0px;word-spacing:0px;fill:#ffffff;fill-opacity:1;stroke:none;stroke-width:0.875745"
     x="0.79079068"
     y="106.15003"
     id="text1040"><tspan
       sodipodi:role="line"
       id="tspan1038"
       x="0.79079068"
       y="106.15003"
       style="font-style:normal;font-variant:normal;font-weight:600;font-stretch:normal;font-family:'Segoe UI';-inkscape-font-specification:'Segoe UI Semi-Bold';fill:#ffffff;fill-opacity:1;stroke-width:0.875745">#</tspan></text>
  <text
     id="text1048"
     y="24.866821"
     x="285.54364"
     style="font-style:normal;font-weight:normal;font-size:26.15971947px;line-height:1.25;font-family:sans-serif;letter-spacing:0px;word-spacing:0px;fill:#ffffff;fill-opacity:1;stroke:none;stroke-width:0.65399295"
     xml:space="preserve"><tspan
       style="font-style:normal;font-variant:normal;font-weight:600;font-stretch:normal;font-family:'Segoe UI';-inkscape-font-specification:'Segoe UI Semi-Bold';fill:#ffffff;fill-opacity:1;stroke-width:0.65399295"
       y="24.866821"
       x="285.54364"
       id="tspan1046"
       sodipodi:role="line">/&gt;</tspan></text>
  <text
     xml:space="preserve"
     style="font-style:normal;font-weight:normal;font-size:40px;line-height:1.25;font-family:sans-serif;letter-spacing:0px;word-spacing:0px;fill:#000000;fill-opacity:1;stroke:none"
     x="54.938602"
     y="16.945459"
     id="text852"><tspan
       sodipodi:role="line"
       id="tspan850"
       x="54.938602"
       y="53.438671" /></text>
  <text
     id="text856"
     y="47.042255"
     x="50.037697"
     style="font-style:normal;font-variant:normal;font-weight:normal;font-stretch:normal;font-size:22.44223404px;line-height:1.25;font-family:'Segoe UI';-inkscape-font-specification:'Segoe UI';letter-spacing:0px;word-spacing:0px;fill:#454b54;fill-opacity:1;stroke:none;stroke-width:0.5610559"
     xml:space="preserve"><tspan
       id="tspan854"
       style="font-style:normal;font-variant:normal;font-weight:600;font-stretch:normal;font-size:6.66666651px;font-family:'Segoe UI';-inkscape-font-specification:'Segoe UI Semi-Bold';fill:#454b54;fill-opacity:1;stroke-width:0.5610559"
       y="47.042255"
       x="50.037697"
       sodipodi:role="line">Smokeview results</tspan></text>
  <text
     id="text860"
     y="47.376835"
     x="215.10443"
     style="font-style:normal;font-variant:normal;font-weight:normal;font-stretch:normal;font-size:22.44223404px;line-height:1.25;font-family:'Segoe UI';-inkscape-font-specification:'Segoe UI';letter-spacing:0px;word-spacing:0px;fill:#454b54;fill-opacity:1;stroke:none;stroke-width:0.5610559"
     xml:space="preserve"><tspan
       style="font-style:normal;font-variant:normal;font-weight:600;font-stretch:normal;font-size:6.66666651px;font-family:'Segoe UI';-inkscape-font-specification:'Segoe UI Semi-Bold';fill:#454b54;fill-opacity:1;stroke-width:0.5610559"
       y="47.376835"
       x="215.10443"
       id="tspan858"
       sodipodi:role="line">CFD simulations</tspan></text>
  <text
     xml:space="preserve"
     style="font-style:normal;font-variant:normal;font-weight:normal;font-stretch:normal;font-size:22.44223404px;line-height:1.25;font-family:'Segoe UI';-inkscape-font-specification:'Segoe UI';letter-spacing:0px;word-spacing:0px;fill:#454b54;fill-opacity:1;stroke:none;stroke-width:0.5610559"
     x="52.4856"
     y="111.24639"
     id="text869"><tspan
       sodipodi:role="line"
       id="tspan867"
       x="52.4856"
       y="111.24639"
       style="font-style:normal;font-variant:normal;font-weight:600;font-stretch:normal;font-size:6.66666651px;font-family:'Segoe UI';-inkscape-font-specification:'Segoe UI Semi-Bold';fill:#454b54;fill-opacity:1;stroke-width:0.5610559">concepts and designs</tspan></text>
  <text
     xml:space="preserve"
     style="font-style:normal;font-variant:normal;font-weight:normal;font-stretch:normal;font-size:22.44223404px;line-height:1.25;font-family:'Segoe UI';-inkscape-font-specification:'Segoe UI';letter-spacing:0px;word-spacing:0px;fill:#454b54;fill-opacity:1;stroke:none;stroke-width:0.5610559"
     x="228.00993"
     y="100.26995"
     id="text873"><tspan
       sodipodi:role="line"
       id="tspan871"
       x="228.00993"
       y="100.26995"
       style="font-style:normal;font-variant:normal;font-weight:600;font-stretch:normal;font-size:6.66666651px;font-family:'Segoe UI';-inkscape-font-specification:'Segoe UI Semi-Bold';fill:#454b54;fill-opacity:1;stroke-width:0.5610559">hardware resources</tspan></text>
</svg>
