<?xml version="1.0" encoding="UTF-8" standalone="no"?>
<!-- Created with Inkscape (http://www.inkscape.org/) -->

<svg
   xmlns:dc="http://purl.org/dc/elements/1.1/"
   xmlns:cc="http://creativecommons.org/ns#"
   xmlns:rdf="http://www.w3.org/1999/02/22-rdf-syntax-ns#"
   xmlns:svg="http://www.w3.org/2000/svg"
   xmlns="http://www.w3.org/2000/svg"
   xmlns:sodipodi="http://sodipodi.sourceforge.net/DTD/sodipodi-0.dtd"
   xmlns:inkscape="http://www.inkscape.org/namespaces/inkscape"
   width="58.897343mm"
   height="39.138485mm"
   viewBox="0 0 208.69137 138.67967"
   id="svg2"
   version="1.1"
   inkscape:version="0.92.3 (2405546, 2018-03-11)"
   sodipodi:docname="wizfds.svg"
   inkscape:export-filename="C:\Users\F&amp;KConsultingEnginee\Desktop\BoxStart-Startup-SinglePage.xd_\images\wizfds.png"
   inkscape:export-xdpi="97.346634"
   inkscape:export-ydpi="97.346634">
  <defs
     id="defs4" />
  <sodipodi:namedview
     id="base"
     pagecolor="#ffffff"
     bordercolor="#666666"
     borderopacity="1.0"
     inkscape:pageopacity="0.0"
     inkscape:pageshadow="2"
     inkscape:zoom="1.4142136"
     inkscape:cx="-6.8003164"
     inkscape:cy="161.79781"
     inkscape:document-units="px"
     inkscape:current-layer="layer1"
     showgrid="false"
     showguides="true"
     inkscape:guide-bbox="true"
     inkscape:window-width="1920"
     inkscape:window-height="1017"
     inkscape:window-x="-8"
     inkscape:window-y="-8"
     inkscape:window-maximized="1"
     fit-margin-top="0"
     fit-margin-left="0"
     fit-margin-right="0"
     fit-margin-bottom="0">
    <sodipodi:guide
       position="-637.65208,-544.51729"
       orientation="0,1"
       id="guide3383"
       inkscape:locked="false" />
  </sodipodi:namedview>
  <metadata
     id="metadata7">
    <rdf:RDF>
      <cc:Work
         rdf:about="">
        <dc:format>image/svg+xml</dc:format>
        <dc:type
           rdf:resource="http://purl.org/dc/dcmitype/StillImage" />
        <dc:title></dc:title>
      </cc:Work>
    </rdf:RDF>
  </metadata>
  <g
     inkscape:label="Layer 1"
     inkscape:groupmode="layer"
     id="layer1"
     transform="translate(-37.621484,-57.406902)">
    <path
       inkscape:connector-curvature="0"
       style="font-style:normal;font-weight:bold;font-size:medium;line-height:125%;font-family:Sans;letter-spacing:0px;word-spacing:0px;fill:#2e3239;fill-opacity:1;stroke:none;stroke-width:0.8469314px;stroke-linecap:butt;stroke-linejoin:miter;stroke-opacity:1"
       d="m 193.41716,71.917875 -3.01223,11.954636 -11.35252,4.806997 10.43943,6.558756 1.06362,12.282156 9.46346,-7.901933 12.00923,2.783953 -4.5903,-11.441842 6.3586,-10.560176 -12.30036,0.828736 z m -38.92742,2.425002 -10.08377,11.736287 -15.17364,-1.723638 8.04751,13.216762 -6.32884,13.898272 15.0562,-3.56802 11.26319,10.3137 1.25882,-15.42341 7.34945,-4.161878 2.16034,6.006268 -4.21812,6.46447 7.71336,-0.23986 4.84339,6.00958 2.15703,-7.41065 7.21215,-2.74922 -6.38177,-4.34053 -0.38707,-7.710049 -6.10055,4.729252 -5.64235,-1.526792 4.58204,-2.593728 -14.27874,-5.963258 z m -41.09767,18.013835 c -3.33386,-0.01525 -6.60524,0.04917 -10.18634,3.027118 -1.48682,1.236694 -2.38731,3.040934 -2.48455,4.97241 l -0.1985,3.90879 c -1.21582,0.0288 -2.499776,0.0646 -3.981568,0.1985 -1.978253,0.17887 -3.79338,0.39054 -4.94264,0.72122 -2.624988,0.75527 -4.707635,1.65929 -4.711056,1.66078 -1.29357,0.55779 -2.346373,1.49412 -3.078401,2.64004 l -0.909791,17.88316 c -0.181718,3.5721 -0.665578,6.43131 -1.086782,6.40988 -0.421213,-0.0214 -0.61511,-2.91388 -0.433392,-6.48598 l 1.009042,-19.81521 c -0.882146,-3.17699 -3.995441,-5.44789 -7.466894,-5.0452 -9.92779,1.15439 -18.258038,7.30493 -18.311581,7.34448 -2.011978,1.35997 -3.169759,3.67988 -3.038697,6.10552 l 2.944408,54.22677 c 0.146189,2.69525 1.853967,5.06569 4.363679,6.0592 11.194968,4.42993 20.59102,-1.985 20.59102,-1.985 a 1.3735393,1.3735393 0 0 0 0.04133,-0.0298 c 0.376631,-0.27943 0.651206,-0.66405 0.962724,-1.01235 5.393319,1.2384 12.128109,0.7839 15.977565,-0.2812 0.606301,0.85138 1.406058,1.56411 2.410114,2.07597 1.45118,0.73981 3.19846,1.24432 5.01045,1.52018 1.812,0.27587 3.68058,0.31975 5.37107,0.0529 1.38574,-0.21863 2.6188,-0.72951 3.62758,-1.5483 l 20.73163,1.15792 a 1.3735393,1.3735393 0 0 0 0.1588,0 c 0.5814,-0.0357 1.13007,-0.23985 1.68228,-0.41851 0.54797,0.37625 1.08692,0.7751 1.72198,0.98092 a 1.3735393,1.3735393 0 0 0 0.008,0.002 c 6.96526,2.22922 13.63233,0.86833 13.69647,0.8552 2.67828,-0.42923 4.76001,-2.37796 5.5067,-4.85332 1.20713,1.55824 2.98367,2.65336 5.08655,2.74591 7.55956,0.33436 14.06598,-1.28187 19.43477,-4.056 0.60239,0.91196 1.33467,1.72841 2.29928,2.27116 a 1.3735393,1.3735393 0 0 0 0.002,0 c 3.18521,1.78794 7.43744,3.90474 12.0423,5.52822 4.57219,1.61196 9.54877,2.95948 14.84942,2.16695 a 1.3735393,1.3735393 0 0 0 0.0149,-0.002 c 0.0485,-0.008 0.10247,-0.0179 0.1588,-0.0281 7.61321,-1.33708 12.96085,-7.0836 15.90808,-13.48805 2.98183,-6.47967 3.57113,-15.29204 -2.27282,-21.62487 -2.7328,-2.96139 -6.10807,-3.84751 -8.50405,-4.36534 -2.40935,-0.52073 -4.46114,-0.79 -5.69859,-1.15129 -1.31303,-0.38337 -1.56234,-0.57131 -1.89402,-0.98919 -0.31767,-0.40025 -0.89373,-1.31197 -0.97596,-4.35045 -0.0531,-1.96385 0.20523,-2.71728 0.36557,-2.93283 0.16035,-0.21556 0.54479,-0.37336 1.59131,-0.74272 0.68007,-0.24002 2.01829,-0.3443 3.17434,-0.29775 0.578,0.0233 1.11907,0.0758 1.53175,0.13233 0.41269,0.0566 0.79761,0.17525 0.63024,0.10918 4.45489,1.75834 9.38279,-1.53517 9.46181,-6.32387 l 0.25308,-15.44657 c 0.0584,-3.57782 -2.65027,-6.62851 -6.20972,-6.99546 -1.77351,-0.18263 -3.48666,-0.27555 -5.14279,-0.27459 -8.41555,0.005 -15.38765,2.51959 -20.33463,6.835 -4.82268,4.20699 -7.46122,9.75734 -8.74887,15.19184 -4.65061,-2.52733 -10.2754,-3.97655 -16.67727,-3.88232 a 1.3735393,1.3735393 0 0 0 -0.0198,0 c -1.28131,0.0195 -2.5796,0.16501 -3.85917,0.30271 -1.21607,-1.21484 -2.7676,-2.05315 -4.50593,-2.12891 l -23.30054,-1.00077 c -4.18568,-0.18048 -7.60353,3.43717 -7.18569,7.60584 l 1.10663,11.01673 c -0.31206,-0.0567 -0.52166,-0.0977 -1.11986,-0.20181 -2.76742,-0.48175 -5.11078,-0.80159 -7.47351,-1.1331 0.1006,-0.72903 0.20103,-1.44199 0.30602,-2.2629 1.85919,-14.53426 3.54487,-28.82379 3.54487,-28.82379 a 1.3735393,1.3735393 0 0 0 0,-0.003 c 0.0279,-0.23836 0.0435,-0.47765 0.0463,-0.7179 0.0517,-4.001719 -2.46831,-7.591458 -5.36609,-9.221962 -2.65363,-1.493142 -5.25205,-1.777843 -7.50164,-1.78815 h -0.002 z"
       id="path4381" />
    <path
       inkscape:connector-curvature="0"
       id="path4383"
       d="m 106.53838,102.00375 -1.5358,18.50739 c 4.26313,2.74038 11.64148,1.42676 12.0718,1.30821 1.23609,-9.97715 2.26671,-18.54256 2.26671,-18.54255 8.4e-4,-0.072 -0.009,-0.13746 -0.0111,-0.20724 a 6.6121687,3.349627 6.34661 0 1 -6.7631,2.01135 6.6121687,3.349627 6.34661 0 1 -6.0285,-3.07716 z m 107.94685,7.48659 c -20.67116,0.012 -25.59943,16.40436 -24.84121,28.48089 -3.30676,-6.03372 -10.24741,-10.49874 -20.83886,-10.33802 -1.59644,0.0243 -5.43006,0.63222 -7.19239,0.87707 l 2.15383,40.005 c 18.24929,0.80716 27.63639,-10.03654 28.11266,-20.75745 0.15572,0.3182 0.31643,0.61628 0.4811,0.88633 5.32575,8.73362 16.06026,5.16853 17.24359,11.22063 1.15193,5.89156 -9.27999,4.4775 -13.95179,1.49326 l -7.06841,6.25424 c 5.81723,3.26533 15.90908,7.86613 22.48199,6.88338 8.90443,-1.56386 16.69698,-16.07461 9.74774,-23.60516 -4.71421,-5.10858 -18.47015,0.71709 -18.90521,-15.36177 -0.32798,-12.12131 12.26792,-12.12515 16.75324,-10.35467 l 0.2535,-15.44688 c -1.5561,-0.16025 -3.03218,-0.23767 -4.42978,-0.23685 z m -138.934979,0.15173 c -7.274599,0.84589 -15.23965,6.20244 -15.23965,6.20244 l 2.943942,54.22692 c 8.067581,3.1924 13.985091,-1.15463 13.985091,-1.15463 l 2.527607,-12.84897 2.810703,10.44904 c 7.865173,2.50199 15.222991,0.37748 15.222991,0.37748 l 1.961392,-55.32789 c -3.383534,-1.01506 -10.304708,1.97064 -10.304708,1.97064 l -2.708936,40.22703 -5.604771,-14.74375 -7.762305,11.27246 z m 61.186159,15.16008 2.02431,20.17088 -19.90073,-4.63149 -1.15833,12.11253 c 1.99034,1.6933 11.44638,-0.0296 11.44638,-0.0296 l -13.39667,16.52009 20.7926,0.26461 c 0.0836,-1.45653 2.86871,-8.16515 3.64338,-10.00865 l 1.09357,10.89128 c 4.75183,1.52082 10.49344,0.61617 10.49344,0.61617 l -0.93444,-15.5172 8.11942,-0.17948 0.48109,-8.87807 -9.82545,0.30715 -0.58287,-7.44033 10.53785,0.32382 0.46815,-13.52066 z m 36.68542,16.7662 c 17.30111,2.76299 9.83577,20.52509 -0.73275,17.82276 z m -34.40022,6.01555 1.10097,10.95788 -8.7874,2.49615 z"
       style="font-style:normal;font-weight:bold;font-size:medium;line-height:125%;font-family:Sans;letter-spacing:0px;word-spacing:0px;fill:#ffffff;fill-opacity:1;stroke:none;stroke-width:0.8469314px;stroke-linecap:butt;stroke-linejoin:miter;stroke-opacity:1" />
    <path
       sodipodi:nodetypes="ccccc"
       inkscape:connector-curvature="0"
       id="path4387"
       d="m 104.68668,122.94554 -3.29893,46.81963 c 0.34428,0.7018 0.85469,1.15558 1.43577,1.30486 l 3.55493,-47.27861 c -1.14798,-0.28196 -1.69177,-0.84588 -1.69177,-0.84588 z"
       style="opacity:0.5;fill:#ffffff;fill-rule:evenodd;stroke:none;stroke-width:0.8469314px;stroke-linecap:butt;stroke-linejoin:miter;stroke-opacity:1" />
    <ellipse
       transform="matrix(0.99352963,0.11357318,-0.10759144,0.99419519,0,0)"
       ry="3.3789651"
       rx="6.4942288"
       cy="88.737701"
       cx="123.34244"
       id="ellipse4389"
       style="color:#000000;clip-rule:nonzero;display:inline;overflow:visible;visibility:visible;opacity:0.82999998;isolation:auto;mix-blend-mode:normal;color-interpolation:sRGB;color-interpolation-filters:linearRGB;solid-color:#000000;solid-opacity:1;fill:#ffffff;fill-opacity:1;fill-rule:nonzero;stroke:none;stroke-width:3.38772559;stroke-linecap:butt;stroke-linejoin:miter;stroke-miterlimit:4;stroke-dasharray:none;stroke-dashoffset:0;stroke-opacity:1;color-rendering:auto;image-rendering:auto;shape-rendering:auto;text-rendering:auto;enable-background:accumulate" />
    <path
       transform="matrix(0.40840397,-0.10899578,0.10899578,0.40840397,262.57928,54.266316)"
       sodipodi:type="star"
       style="color:#000000;clip-rule:nonzero;display:inline;overflow:visible;visibility:visible;opacity:1;isolation:auto;mix-blend-mode:normal;color-interpolation:sRGB;color-interpolation-filters:linearRGB;solid-color:#000000;solid-opacity:1;fill:#ffffff;fill-opacity:1;fill-rule:nonzero;stroke:none;stroke-width:4;stroke-linecap:butt;stroke-linejoin:miter;stroke-miterlimit:4;stroke-dasharray:none;stroke-dashoffset:0;stroke-opacity:1;color-rendering:auto;image-rendering:auto;shape-rendering:auto;text-rendering:auto;enable-background:accumulate"
       id="path4420"
       sodipodi:sides="5"
       sodipodi:cx="-170.04851"
       sodipodi:cy="42.563877"
       sodipodi:r1="18.380207"
       sodipodi:r2="9.4936895"
       sodipodi:arg1="0.96934162"
       sodipodi:arg2="1.5976602"
       inkscape:flatsided="false"
       inkscape:rounded="0"
       inkscape:randomized="0"
       d="m -159.64821,57.718603 -10.6553,-5.664462 -10.94413,5.084079 2.09455,-11.884216 -8.21716,-8.837414 11.94981,-1.680387 5.86564,-10.545901 5.29083,10.845679 11.84233,2.319689 -8.67989,8.383386 z"
       inkscape:transform-center-x="0.65712544"
       inkscape:transform-center-y="-0.22715905" />
    <path
       transform="matrix(0.35008656,0.14960038,-0.14960038,0.35008656,235.97032,112.61762)"
       inkscape:transform-center-y="0.17478561"
       inkscape:transform-center-x="-0.29512066"
       d="m -150.89642,55.243725 -6.27329,-3.33494 -6.44333,2.993241 1.23316,-6.996808 -4.83784,-5.203009 7.03543,-0.989325 3.45338,-6.208878 3.11497,6.385372 6.97215,1.365712 -5.11027,4.935701 z"
       inkscape:randomized="0"
       inkscape:rounded="0"
       inkscape:flatsided="false"
       sodipodi:arg2="1.5976602"
       sodipodi:arg1="0.96934162"
       sodipodi:r2="5.5893903"
       sodipodi:r1="10.821309"
       sodipodi:cy="46.321411"
       sodipodi:cx="-157.01958"
       sodipodi:sides="5"
       id="path4422"
       style="color:#000000;clip-rule:nonzero;display:inline;overflow:visible;visibility:visible;opacity:1;isolation:auto;mix-blend-mode:normal;color-interpolation:sRGB;color-interpolation-filters:linearRGB;solid-color:#000000;solid-opacity:1;fill:#ffffff;fill-opacity:1;fill-rule:nonzero;stroke:none;stroke-width:4;stroke-linecap:butt;stroke-linejoin:miter;stroke-miterlimit:4;stroke-dasharray:none;stroke-dashoffset:0;stroke-opacity:1;color-rendering:auto;image-rendering:auto;shape-rendering:auto;text-rendering:auto;enable-background:accumulate"
       sodipodi:type="star" />
    <path
       transform="matrix(0.4500426,0.10253358,-0.10253358,0.4500426,255.40772,97.053716)"
       inkscape:transform-center-y="-0.232936"
       inkscape:transform-center-x="-0.91429981"
       d="m -213.07618,68.678761 -12.55833,-7.147675 -13.14086,6.45713 2.91711,-14.152435 -10.20185,-10.502339 14.3612,-1.59901 6.83578,-12.947933 5.9586,13.164192 14.42659,2.500076 -10.67858,9.734929 z"
       inkscape:randomized="0"
       inkscape:rounded="0"
       inkscape:flatsided="false"
       sodipodi:arg2="1.5876974"
       sodipodi:arg1="0.96934162"
       sodipodi:r2="10.885103"
       sodipodi:r1="21.868929"
       sodipodi:cy="50.647537"
       sodipodi:cx="-225.45055"
       sodipodi:sides="5"
       id="path4424"
       style="color:#000000;clip-rule:nonzero;display:inline;overflow:visible;visibility:visible;opacity:1;isolation:auto;mix-blend-mode:normal;color-interpolation:sRGB;color-interpolation-filters:linearRGB;solid-color:#000000;solid-opacity:1;fill:#ffffff;fill-opacity:1;fill-rule:nonzero;stroke:none;stroke-width:4;stroke-linecap:butt;stroke-linejoin:miter;stroke-miterlimit:4;stroke-dasharray:none;stroke-dashoffset:0;stroke-opacity:1;color-rendering:auto;image-rendering:auto;shape-rendering:auto;text-rendering:auto;enable-background:accumulate"
       sodipodi:type="star" />
  </g>
</svg>
