<?xml version="1.0" encoding="UTF-8" standalone="no"?>
<svg
   xmlns:dc="http://purl.org/dc/elements/1.1/"
   xmlns:cc="http://creativecommons.org/ns#"
   xmlns:rdf="http://www.w3.org/1999/02/22-rdf-syntax-ns#"
   xmlns:svg="http://www.w3.org/2000/svg"
   xmlns="http://www.w3.org/2000/svg"
   xmlns:sodipodi="http://sodipodi.sourceforge.net/DTD/sodipodi-0.dtd"
   xmlns:inkscape="http://www.inkscape.org/namespaces/inkscape"
   viewBox="0 0 1066.6133 600"
   version="1.1"
   id="svg177"
   sodipodi:docname="how-it-works.svg"
   inkscape:version="0.92.3 (2405546, 2018-03-11)"
   width="1066.6133"
   height="600">
  <metadata
     id="metadata181">
    <rdf:RDF>
      <cc:Work
         rdf:about="">
        <dc:format>image/svg+xml</dc:format>
        <dc:type
           rdf:resource="http://purl.org/dc/dcmitype/StillImage" />
        <dc:title />
      </cc:Work>
    </rdf:RDF>
  </metadata>
  <sodipodi:namedview
     pagecolor="#ffffff"
     bordercolor="#666666"
     borderopacity="1"
     objecttolerance="10"
     gridtolerance="10"
     guidetolerance="10"
     inkscape:pageopacity="0"
     inkscape:pageshadow="2"
     inkscape:window-width="1920"
     inkscape:window-height="1017"
     id="namedview179"
     showgrid="false"
     inkscape:zoom="1.2628762"
     inkscape:cx="541.26204"
     inkscape:cy="309.19052"
     inkscape:window-x="-8"
     inkscape:window-y="-8"
     inkscape:window-maximized="1"
     inkscape:current-layer="svg177"
     fit-margin-top="0"
     fit-margin-left="0"
     fit-margin-right="0"
     fit-margin-bottom="0" />
  <defs
     id="defs4">
    <style
       id="style2">
      .cls-1 {
        fill: #c7d7e2;
      }

      .cls-12, .cls-2, .cls-3, .cls-4, .cls-6, .cls-9 {
        fill: #454b54;
      }

      .cls-2 {
        fill-rule: evenodd;
      }

      .cls-4 {
        opacity: 0.46;
      }

      .cls-5, .cls-8 {
        fill: #fff;
      }

      .cls-6 {
        font-size: 36px;
      }

      .cls-6, .cls-7, .cls-9 {
        font-family: SegoeUI, Segoe UI;
      }

      .cls-11, .cls-7 {
        fill: #95989a;
      }

      .cls-7, .cls-9 {
        font-size: 16px;
      }

      .cls-10, .cls-11, .cls-8 {
        stroke: #95989a;
      }

      .cls-10, .cls-14 {
        fill: none;
      }

      .cls-12 {
        font-size: 24px;
        font-family: SegoeUI-Semibold, Segoe UI;
        font-weight: 600;
      }

      .cls-13 {
        stroke: none;
      }
    </style>
  </defs>
  <rect
     id="Rectangle_7"
     data-name="Rectangle 7"
     class="cls-1"
     width="226"
     height="392"
     x="431.03906"
     y="106.5"
     style="fill:#c7d7e2" />
  <path
     style="fill:#ffffff;stroke:none;stroke-width:1px;stroke-linecap:butt;stroke-linejoin:miter;stroke-opacity:1;fill-opacity:1"
     d="m 497.55967,150.05073 h 61.72203 l 26.19751,29.92841 0.003,55.21786 -87.92225,-0.002 z"
     id="path1068"
     inkscape:connector-curvature="0" />
  <path
     id="Apple-iPhone-5S-2"
     data-name="Apple-iPhone-5S"
     class="cls-2"
     d="m 416.52706,221.185 h -3.488 v -19.766 h 3.488 V 177 h -3.488 v -19.764 h 3.488 v -25.58 h -3.488 v -24.417 h 3.488 v -37.2 a 37.208,37.208 0 0 1 37.2,-37.214 h 132.56 V 30.5 h 41.852 v 2.325 h 4.661 a 37.207,37.207 0 0 1 37.2,37.214 v 462.747 a 37.208,37.208 0 0 1 -37.2,37.214 h -179.076 a 37.207,37.207 0 0 1 -37.2,-37.214 z m 105.818,-144.176 a 1.167,1.167 0 0 0 -1.173,1.174 v 2.3 a 1.17,1.17 0 0 0 1.162,1.174 h 40.686 a 1.166,1.166 0 0 0 1.172,-1.174 v -2.3 a 1.165,1.165 0 0 0 -1.173,-1.174 z m 20.337,-12.79 a 5.232,5.232 0 1 0 -5.232,-5.232 5.232,5.232 0 0 0 5.232,5.232 z m -108.721,43.02 a 2.33,2.33 0 0 0 -2.322,2.337 v 384.836 a 2.333,2.333 0 0 0 2.319,2.337 h 218.6 a 2.33,2.33 0 0 0 2.318,-2.337 V 109.576 a 2.332,2.332 0 0 0 -2.318,-2.337 z m 109.3,446.483 a 22.092,22.092 0 1 0 -22.092,-22.092 22.092,22.092 0 0 0 22.094,22.092 z m -36.042,-470.9 a 3.488,3.488 0 1 0 -3.488,-3.488 3.488,3.488 0 0 0 3.488,3.488 z m 36.044,468.578 a 19.766,19.766 0 1 0 -19.766,-19.766 19.766,19.766 0 0 0 19.766,19.766 z"
     inkscape:connector-curvature="0"
     style="fill:#454b54;fill-rule:evenodd" />
  <rect
     id="Rectangle_8"
     data-name="Rectangle 8"
     class="cls-3"
     width="190.39999"
     height="19.844"
     rx="9.9219999"
     x="449.03906"
     y="314.20001"
     style="fill:#454b54" />
  <rect
     id="Rectangle_9"
     data-name="Rectangle 9"
     class="cls-4"
     width="190.39999"
     height="8.9300003"
     rx="4.4650002"
     x="449.03906"
     y="347.936"
     style="opacity:0.46000001;fill:#454b54" />
  <rect
     id="Rectangle_10"
     data-name="Rectangle 10"
     class="cls-4"
     width="190.39999"
     height="8.9300003"
     rx="4.4650002"
     x="449.03906"
     y="363.811"
     style="opacity:0.46000001;fill:#454b54" />
  <rect
     id="Rectangle_11"
     data-name="Rectangle 11"
     class="cls-4"
     width="190.39999"
     height="8.9300003"
     rx="4.4650002"
     x="449.03906"
     y="379.68701"
     style="opacity:0.46000001;fill:#454b54" />
  <rect
     id="Rectangle_12"
     data-name="Rectangle 12"
     class="cls-4"
     width="160.823"
     height="7.9380002"
     rx="3.9690001"
     x="449.03906"
     y="395.56201"
     style="opacity:0.46000001;fill:#454b54" />
  <g
     id="package"
     transform="matrix(0.63384126,0,0,0.63384126,502.4618,409.99782)">
    <g
       id="Group_3"
       data-name="Group 3">
      <g
         id="Group_2"
         data-name="Group 2">
        <g
           id="Group_1"
           data-name="Group 1">
          <path
             id="Path_1"
             data-name="Path 1"
             class="cls-5"
             d="m 14.7,95.1 47.7,20 a 4.041,4.041 0 0 0 3.4,0 l 47.7,-20.2 a 4.272,4.272 0 0 0 2.6,-4 v -54 a 4.312,4.312 0 0 0 -2.7,-4 l -47.7,-20 a 4.041,4.041 0 0 0 -3.4,0 L 14.6,33.1 A 4.136,4.136 0 0 0 12,37 v 54.1 a 4.214,4.214 0 0 0 2.7,4 z"
             inkscape:connector-curvature="0"
             style="fill:#ffffff" />
        </g>
      </g>
    </g>
    <g
       id="Group_6"
       data-name="Group 6">
      <g
         id="Group_5"
         data-name="Group 5">
        <g
           id="Group_4"
           data-name="Group 4">
          <path
             id="Path_2"
             data-name="Path 2"
             class="cls-1"
             d="m 114.8,34.9 -51,21.7 v 54.9 a 2.591,2.591 0 0 0 3.6,2.4 l 47,-19.6 A 2.5,2.5 0 0 0 116,91.9 V 35.7 a 0.881,0.881 0 0 0 -1.2,-0.8 z"
             inkscape:connector-curvature="0"
             style="fill:#c7d7e2" />
        </g>
      </g>
    </g>
    <g
       id="Group_19"
       data-name="Group 19">
      <g
         id="Group_9"
         data-name="Group 9">
        <g
           id="Group_8"
           data-name="Group 8">
          <g
             id="Group_7"
             data-name="Group 7">
            <path
               id="Path_3"
               data-name="Path 3"
               class="cls-3"
               d="m 64,118.5 v 0 a 6.71,6.71 0 0 1 -2.8,-0.6 L 13.5,97.9 A 7.438,7.438 0 0 1 9,91.1 V 37 a 7.3,7.3 0 0 1 4.5,-6.7 L 61.2,10.1 a 7.069,7.069 0 0 1 5.7,0 l 47.7,20 a 7.3,7.3 0 0 1 4.5,6.7 V 91 a 7.3,7.3 0 0 1 -4.5,6.7 l -47.7,20.2 a 7.533,7.533 0 0 1 -2.9,0.6 z m 0,-103 a 0.749,0.749 0 0 0 -0.5,0.1 L 15.8,35.8 A 1.3,1.3 0 0 0 15,37 v 54.1 a 1.3,1.3 0 0 0 0.8,1.2 l 47.7,20 a 1.7,1.7 0 0 0 1,0 l 47.7,-20.2 a 1.3,1.3 0 0 0 0.8,-1.2 v -54 a 1.3,1.3 0 0 0 -0.8,-1.2 L 64.5,15.7 A 0.764,0.764 0 0 0 64,15.5 Z"
               inkscape:connector-curvature="0"
               style="fill:#454b54" />
          </g>
        </g>
      </g>
      <g
         id="Group_12"
         data-name="Group 12">
        <g
           id="Group_11"
           data-name="Group 11">
          <g
             id="Group_10"
             data-name="Group 10">
            <path
               id="Path_4"
               data-name="Path 4"
               class="cls-3"
               d="m 89.9,48.5 a 3.077,3.077 0 0 1 -2.8,-1.8 2.862,2.862 0 0 1 1.6,-3.9 L 113.6,32 a 2.981,2.981 0 1 1 2.3,5.5 L 91.1,48.3 a 2.537,2.537 0 0 1 -1.2,0.2 z"
               inkscape:connector-curvature="0"
               style="fill:#454b54" />
          </g>
        </g>
      </g>
      <g
         id="Group_15"
         data-name="Group 15">
        <g
           id="Group_14"
           data-name="Group 14">
          <g
             id="Group_13"
             data-name="Group 13">
            <path
               id="Path_5"
               data-name="Path 5"
               class="cls-3"
               d="m 64,117.1 a 2.946,2.946 0 0 1 -3,-3 L 60.9,59 A 1.3,1.3 0 0 0 60.1,57.8 L 12.1,37.5 A 2.981,2.981 0 0 1 14.4,32 l 48,20.3 a 7.3,7.3 0 0 1 4.5,6.7 l 0.1,55.1 a 2.946,2.946 0 0 1 -3,3 z"
               inkscape:connector-curvature="0"
               style="fill:#454b54" />
          </g>
        </g>
      </g>
      <g
         id="Group_18"
         data-name="Group 18">
        <g
           id="Group_17"
           data-name="Group 17">
          <g
             id="Group_16"
             data-name="Group 16">
            <path
               id="Path_6"
               data-name="Path 6"
               class="cls-3"
               d="m 37.9,56.8 a 2.946,2.946 0 0 1 -3,-3 V 48 a 7.3,7.3 0 0 1 4.5,-6.7 l 49.3,-21 a 2.938,2.938 0 0 1 3.9,1.6 3.021,3.021 0 0 1 -1.6,3.9 l -49.3,21 A 1.3,1.3 0 0 0 40.9,48 v 5.8 a 3.009,3.009 0 0 1 -3,3 z"
               inkscape:connector-curvature="0"
               style="fill:#454b54" />
          </g>
        </g>
      </g>
    </g>
  </g>
  <g
     transform="matrix(0.2466878,0,0,0.2466878,473.58162,144.72203)"
     id="g14"
     style="fill:#454b54;fill-opacity:1">
    <g
       id="g12"
       style="fill:#454b54;fill-opacity:1">
      <path
         inkscape:connector-curvature="0"
         d="m 264.908,413.791 h -0.369 c -1.866,7.494 -3.73,17.033 -5.798,24.332 l -7.48,26.778 h 27.884 l -7.865,-26.778 c -2.253,-7.483 -4.5,-16.838 -6.372,-24.332 z"
         id="path2"
         style="fill:#454b54;fill-opacity:1" />
      <path
         inkscape:connector-curvature="0"
         d="m 382.135,413.417 c -6.36,0 -10.479,0.564 -12.92,1.128 v 82.562 c 2.436,0.559 6.37,0.559 9.924,0.559 25.84,0.19 42.684,-14.038 42.684,-44.181 0.189,-26.21 -15.157,-40.068 -39.688,-40.068 z"
         id="path4-9"
         style="fill:#454b54;fill-opacity:1" />
      <path
         inkscape:connector-curvature="0"
         d="m 475.095,131.992 c -0.032,-2.521 -0.833,-5.021 -2.568,-6.993 L 366.324,3.689 C 366.303,3.654 366.271,3.644 366.24,3.612 365.607,2.906 364.88,2.328 364.099,1.809 363.867,1.664 363.634,1.524 363.392,1.387 362.706,1.02 361.999,0.722 361.261,0.501 361.061,0.438 360.882,0.356 360.681,0.304 359.87,0.114 359.037,0 358.203,0 H 97.2 C 85.292,0 75.6,9.693 75.6,21.601 v 507.6 c 0,11.907 9.692,21.601 21.6,21.601 h 356.4 c 11.908,0 21.601,-9.693 21.601,-21.601 V 133.202 c -0.001,-0.411 -0.064,-0.809 -0.106,-1.21 z M 169.037,496.916 c 8.628,0 18.17,-1.872 23.792,-4.118 l 4.303,22.285 c -5.242,2.616 -17.031,5.427 -32.39,5.427 -43.63,0 -66.095,-27.147 -66.095,-63.097 0,-43.068 30.705,-67.025 68.903,-67.025 14.787,0 26.03,3.001 31.084,5.611 l -5.801,22.649 c -5.812,-2.432 -13.856,-4.667 -23.965,-4.667 -22.663,0 -40.268,13.652 -40.268,41.739 -0.004,25.281 14.985,41.196 40.437,41.196 z m 123.966,21.722 -9.745,-32.4 h -36.131 l -8.975,32.4 h -29.587 l 38.562,-126.193 h 37.455 l 39.124,126.193 z m 138.185,-14.982 c -13.299,11.053 -33.518,16.295 -58.229,16.295 -14.782,0 -25.271,-0.939 -32.39,-1.878 V 394.137 c 10.483,-1.692 24.157,-2.626 38.575,-2.626 23.968,0 39.492,4.304 51.664,13.479 13.114,9.745 21.347,25.28 21.347,47.566 0,24.142 -8.796,40.806 -20.967,51.1 z M 97.2,366.752 V 21.601 h 250.203 v 110.521 c 0,5.962 4.831,10.8 10.8,10.8 H 453.6 l 0.011,223.837 H 97.2 Z"
         id="path6-3"
         style="fill:#454b54;fill-opacity:1" />
      <path
         inkscape:connector-curvature="0"
         d="M 325.244,268.289 303.17,208.256 h 12.256 v 9.682 h 5.979 v -25.353 h -5.979 v 9.693 h -14.46 l -14.302,-38.886 c 1.529,-3.449 2.404,-7.235 2.404,-11.243 0,-14.109 -10.525,-25.65 -24.123,-27.496 v -33.07 h -7.491 v 33.064 c -13.614,1.846 -24.131,13.387 -24.131,27.496 0,5.655 1.695,10.908 4.611,15.303 l -12.825,34.826 H 210.08 v -9.692 h -5.978 v 25.352 h 5.978 v -9.682 h 12.835 l -22.074,60.033 1.405,16.894 -8.214,36.598 18.479,-32.379 13.278,-12.445 37.249,-95.354 37.272,95.354 13.269,12.445 18.478,32.379 -8.216,-36.598 z m -63.608,-96.823 c -10.655,0 -19.28,-8.627 -19.28,-19.256 0,-10.645 8.63,-19.267 19.28,-19.267 10.642,0 19.269,8.628 19.269,19.267 0,10.634 -8.627,19.256 -19.269,19.256 z"
         id="path8-2"
         style="fill:#454b54;fill-opacity:1" />
      <circle
         cx="261.63599"
         cy="152.47501"
         r="9.5039997"
         id="circle10"
         style="fill:#454b54;fill-opacity:1" />
    </g>
  </g>
  <g
     id="Ellipse_1"
     data-name="Ellipse 1"
     class="cls-8"
     transform="translate(727.03906,48.5)"
     style="fill:#ffffff;stroke:#95989a">
    <circle
       class="cls-13"
       cx="40"
       cy="40"
       r="40"
       id="circle49"
       style="stroke:none" />
    <circle
       class="cls-14"
       cx="40"
       cy="40"
       r="39.5"
       id="circle51"
       style="fill:none" />
  </g>
  <text
     id="Generate_and_edit_manually_input_file_in_text_editor"
     data-name="Generate and edit manually input file in text editor"
     class="cls-9"
     style="font-size:16px;font-family:SegoeUI, 'Segoe UI';fill:#454b54"
     x="819.03906"
     y="75.5">
    <tspan
       x="819.03906"
       y="92.5"
       id="tspan54">Generate and edit manually</tspan>
    <tspan
       x="819.03906"
       y="113.5"
       id="tspan56">input file in text editor</tspan>
  </text>
  <path
     id="Path_7"
     data-name="Path 7"
     class="cls-10"
     d="m 729.88806,106 -93.83492,89.62489 -17.34608,126.6359"
     inkscape:connector-curvature="0"
     style="fill:none;stroke:#95989a"
     sodipodi:nodetypes="ccc" />
  <g
     id="Ellipse_2"
     data-name="Ellipse 2"
     class="cls-11"
     transform="translate(615.11141,318.60544)"
     style="fill:#95989a;stroke:#95989a">
    <circle
       class="cls-13"
       cx="3.5"
       cy="3.5"
       r="3.5"
       id="circle60"
       style="stroke:none" />
    <circle
       class="cls-14"
       cx="3.5"
       cy="3.5"
       r="3"
       id="circle62"
       style="fill:none" />
  </g>
  <text
     id="_3._EDIT_INPUT_FILE"
     data-name="3. EDIT INPUT FILE"
     class="cls-12"
     style="font-weight:600;font-size:24px;font-family:SegoeUI-Semibold, 'Segoe UI';fill:#454b54"
     x="819.03906"
     y="68.5">
    <tspan
       x="819.03906"
       y="68.5"
       id="tspan65">3. EDIT INPUT FILE</tspan>
  </text>
  <g
     id="terminal"
     transform="translate(747.93906,-7.305)">
    <g
       id="Group_20"
       data-name="Group 20"
       transform="translate(0,82.219)">
      <path
         id="Path_16"
         data-name="Path 16"
         class="cls-3"
         d="m 202.5,352.809 a 0.717,0.717 0 0 0 -0.532,-0.208 h -22.215 a 0.712,0.712 0 0 0 -0.74,0.74 v 1.481 a 0.712,0.712 0 0 0 0.74,0.74 h 22.212 a 0.713,0.713 0 0 0 0.74,-0.74 v -1.481 a 0.716,0.716 0 0 0 -0.205,-0.532 z"
         transform="translate(-164.505,-330.689)"
         inkscape:connector-curvature="0"
         style="fill:#454b54" />
      <path
         id="Path_17"
         data-name="Path 17"
         class="cls-3"
         d="m 2.452,82.45 a 0.727,0.727 0 0 0 -1.064,0 l -1.157,1.158 a 0.728,0.728 0 0 0 0,1.064 l 9.094,9.093 -9.094,9.093 a 0.728,0.728 0 0 0 0,1.064 l 1.157,1.157 a 0.728,0.728 0 0 0 1.064,0 L 13.235,94.3 a 0.728,0.728 0 0 0 0,-1.064 z"
         transform="translate(0,-82.219)"
         inkscape:connector-curvature="0"
         style="fill:#454b54" />
    </g>
  </g>
  <g
     id="Ellipse_1-2"
     data-name="Ellipse 1"
     class="cls-8"
     transform="translate(721.03906,264.5)"
     style="fill:#ffffff;stroke:#95989a">
    <circle
       class="cls-13"
       cx="41"
       cy="41"
       r="41"
       id="circle73"
       style="stroke:none" />
    <circle
       class="cls-14"
       cx="41"
       cy="41"
       r="40.5"
       id="circle75"
       style="fill:none" />
  </g>
  <text
     id="Download_FDS_input_file_or_run_it_on_remote_resources"
     data-name="Download FDS input file or run it on remote resources"
     class="cls-9"
     style="font-size:16px;font-family:SegoeUI, 'Segoe UI';fill:#454b54"
     x="814.03906"
     y="299.5">
    <tspan
       x="814.03906"
       y="316.5"
       id="tspan78">Download FDS input file or</tspan>
    <tspan
       x="814.03906"
       y="337.5"
       id="tspan80">run it on remote resources</tspan>
  </text>
  <path
     id="Path_7-2"
     data-name="Path 7"
     class="cls-10"
     d="M 729.88806,330 707.86968,421.54799 544.11624,530.80625"
     inkscape:connector-curvature="0"
     style="fill:none;stroke:#95989a"
     sodipodi:nodetypes="ccc" />
  <g
     id="Ellipse_2-2"
     data-name="Ellipse 2"
     class="cls-11"
     transform="translate(539.55933,528.13841)"
     style="fill:#95989a;stroke:#95989a">
    <circle
       class="cls-13"
       cx="3.5"
       cy="3.5"
       r="3.5"
       id="circle84"
       style="stroke:none" />
    <circle
       class="cls-14"
       cx="3.5"
       cy="3.5"
       r="3"
       id="circle86"
       style="fill:none" />
  </g>
  <text
     id="_4._RUN_CALCULATIONS"
     data-name="4. RUN CALCULATIONS"
     class="cls-12"
     style="font-weight:600;font-size:24px;font-family:SegoeUI-Semibold, 'Segoe UI';fill:#454b54"
     x="814.03906"
     y="292.5">
    <tspan
       x="814.03906"
       y="292.5"
       id="tspan89">4. RUN CALCULATIONS</tspan>
  </text>
  <g
     id="calculate"
     transform="translate(640.93906,271.633)">
    <g
       id="g51"
       transform="translate(102.1,10)">
      <g
         id="_x31_86_50_">
        <g
           id="g48">
          <path
             id="path4"
             class="cls-3"
             d="m 141.406,226.4 c 0,0 -0.065,-0.71 -0.1,-1.07 a 4.76,4.76 0 0 0 0.481,-0.318 l 0.8,0.462 0.911,-0.238 1.032,-1.779 -0.238,-0.911 -1.028,-0.593 a 4.067,4.067 0 0 0 -0.07,-0.584 c 0.271,-0.234 0.817,-0.7 0.817,-0.7 v -0.939 l -1.35,-1.565 h -0.939 c 0,0 -0.444,0.383 -0.668,0.574 a 4.254,4.254 0 0 0 -0.761,-0.285 c -0.023,-0.266 -0.065,-0.794 -0.065,-0.794 l -0.668,-0.663 -2.05,0.168 -0.663,0.663 c 0,0 0.056,0.7 0.084,1.046 a 3.662,3.662 0 0 0 -0.565,0.388 c -0.29,-0.135 -0.869,-0.4 -0.869,-0.4 l -0.911,0.238 -0.859,1.873 -0.028,0.126 0.271,0.78 c 0,0 0.673,0.308 1,0.458 a 3.314,3.314 0 0 0 0.1,0.645 c -0.257,0.215 -0.766,0.649 -0.766,0.649 v 0.939 l 1.331,1.574 c 0,0 0.775,0.093 0.817,0.07 l 0.126,-0.07 0.729,-0.617 a 4.34,4.34 0 0 0 0.64,0.229 c 0.023,0.276 0.075,0.827 0.075,0.827 l 0.663,0.663 2.05,-0.187 z M 139,224.2 a 2.071,2.071 0 1 1 2.074,-2.069 A 2.067,2.067 0 0 1 139,224.2 Z"
             transform="translate(-132.224,-207.332)"
             inkscape:connector-curvature="0"
             style="fill:#454b54" />
          <path
             id="path6"
             class="cls-3"
             d="m 301.82,417.409 c 0,0 -0.047,-0.537 -0.075,-0.808 a 3.052,3.052 0 0 0 0.364,-0.238 c 0.2,0.112 0.6,0.35 0.6,0.35 l 0.687,-0.182 0.78,-1.345 L 304,414.5 c 0,0 -0.518,-0.3 -0.78,-0.448 a 2.69,2.69 0 0 0 -0.051,-0.439 c 0.206,-0.177 0.617,-0.528 0.617,-0.528 v -0.71 l -1.009,-1.186 h -0.71 l -0.5,0.434 a 3.54,3.54 0 0 0 -0.574,-0.215 c -0.019,-0.2 -0.047,-0.6 -0.047,-0.6 l -0.5,-0.5 -1.551,0.126 -0.5,0.5 c 0,0 0.042,0.528 0.065,0.789 a 3.329,3.329 0 0 0 -0.43,0.294 c -0.215,-0.1 -0.654,-0.3 -0.654,-0.3 l -0.687,0.182 -0.649,1.415 -0.023,0.1 0.206,0.588 c 0,0 0.509,0.234 0.761,0.346 a 2.5,2.5 0 0 0 0.079,0.49 c -0.191,0.163 -0.579,0.49 -0.579,0.49 v 0.71 l 1,1.186 a 5.977,5.977 0 0 0 0.616,0.051 l 0.093,-0.051 0.551,-0.467 a 3.326,3.326 0 0 0 0.486,0.173 c 0.019,0.21 0.056,0.626 0.056,0.626 l 0.5,0.5 1.551,-0.14 z M 300,415.741 a 1.565,1.565 0 1 1 1.569,-1.565 1.565,1.565 0 0 1 -1.569,1.565 z"
             transform="translate(-286.944,-391.604)"
             inkscape:connector-curvature="0"
             style="fill:#454b54" />
          <path
             id="path8"
             class="cls-3"
             d="M 298.414,144.4 H 278.69 a 1.28,1.28 0 0 0 0,2.559 h 19.724 a 1.28,1.28 0 0 0 0,-2.559 z"
             transform="translate(-269.26,-138.123)"
             inkscape:connector-curvature="0"
             style="fill:#454b54" />
          <path
             id="path10"
             class="cls-3"
             d="m 507.543,274.1 h -9.481 a 1.28,1.28 0 0 0 0,2.559 h 9.481 a 1.28,1.28 0 0 0 0,-2.559 z"
             transform="translate(-478.389,-261.765)"
             inkscape:connector-curvature="0"
             style="fill:#454b54" />
          <path
             id="polygon12"
             class="cls-3"
             d="m 105.173,13.073 h 29.765 v 16.258 h 3.073 V 10 H 102.1 v 10.023 h 3.073 z"
             transform="translate(-102.1,-10)"
             inkscape:connector-curvature="0"
             style="fill:#454b54" />
          <path
             id="path14"
             class="cls-3"
             d="m 434.316,624.365 a 6,6 0 0 0 -0.084,-0.967 c 0.462,-0.369 1.383,-1.107 1.383,-1.107 l 0.051,-1.546 -2.125,-2.648 -1.551,-0.051 c 0,0 -0.752,0.607 -1.13,0.911 a 7.476,7.476 0 0 0 -1.242,-0.514 c -0.023,-0.439 -0.065,-1.312 -0.065,-1.312 l -1.065,-1.131 -3.391,0.163 -1.13,1.06 c 0,0 0.056,1.154 0.079,1.728 a 7.226,7.226 0 0 0 -0.957,0.607 l -1.406,-0.7 -1.513,0.346 -1.513,3.045 -0.056,0.206 0.4,1.3 c 0,0 1.088,0.537 1.635,0.813 a 5.829,5.829 0 0 0 0.135,1.07 c -0.434,0.341 -1.3,1.032 -1.3,1.032 l -0.051,1.546 2.111,2.662 a 13.443,13.443 0 0 0 1.34,0.154 c 0.07,-0.037 0.21,-0.107 0.21,-0.107 0,0 0.827,-0.654 1.238,-0.981 a 6.581,6.581 0 0 0 1.046,0.411 c 0.023,0.458 0.079,1.368 0.079,1.368 l 1.06,1.13 3.386,-0.2 1.13,-1.06 c 0,0 -0.07,-1.177 -0.1,-1.765 a 6.844,6.844 0 0 0 0.808,-0.5 c 0.43,0.271 1.294,0.808 1.294,0.808 l 1.509,-0.346 1.793,-2.882 -0.346,-1.509 c 0,0 -1.106,-0.688 -1.662,-1.034 z m -7.132,3.47 a 3.416,3.416 0 1 1 3.526,-3.3 3.41,3.41 0 0 1 -3.526,3.3 z"
             transform="translate(-403.818,-587.696)"
             inkscape:connector-curvature="0"
             style="fill:#454b54" />
          <path
             id="path16"
             class="cls-3"
             d="m 508.587,433.916 c 0,0 -1.2,-0.743 -1.793,-1.112 a 5.863,5.863 0 0 0 -0.093,-1.037 c 0.5,-0.4 1.49,-1.191 1.49,-1.191 l 0.056,-1.667 -2.289,-2.849 -1.668,-0.06 c 0,0 -0.813,0.649 -1.214,0.976 a 7.215,7.215 0 0 0 -1.34,-0.551 c -0.019,-0.472 -0.065,-1.415 -0.065,-1.415 l -1.14,-1.214 -3.648,0.177 -1.214,1.14 c 0,0 0.061,1.238 0.089,1.859 a 7.511,7.511 0 0 0 -1.028,0.654 c -0.5,-0.252 -1.518,-0.752 -1.518,-0.752 l -1.621,0.374 -1.63,3.269 -0.061,0.224 0.434,1.4 1.368,0.677 0.677,-0.635 0.276,-0.257 0.378,-0.019 2.723,-0.131 a 3.666,3.666 0 0 1 7.169,1.2 3.616,3.616 0 0 1 -0.388,1.518 l 1.91,2.382 0.238,0.294 -0.014,0.378 -0.033,0.981 c 0.4,0.243 0.775,0.481 0.775,0.481 l 1.625,-0.369 1.929,-3.1 z"
             transform="translate(-471.788,-404.473)"
             inkscape:connector-curvature="0"
             style="fill:#454b54" />
          <path
             id="path18"
             class="cls-3"
             d="m 112.45,476.7 a 1.149,1.149 0 0 0 0.747,-0.243 1.521,1.521 0 0 0 0.448,-0.687 3.848,3.848 0 0 0 0.149,-1.172 4.1,4.1 0 0 0 -0.093,-0.971 2.076,2.076 0 0 0 -0.257,-0.617 1.123,1.123 0 0 0 -0.416,-0.383 1.224,1.224 0 0 0 -0.584,-0.131 1.132,1.132 0 0 0 -0.747,0.243 1.471,1.471 0 0 0 -0.448,0.687 3.86,3.86 0 0 0 -0.149,1.177 2.72,2.72 0 0 0 0.406,1.677 1.162,1.162 0 0 0 0.944,0.42 z m -0.56,-3.494 a 0.654,0.654 0 0 1 0.556,-0.294 0.716,0.716 0 0 1 0.593,0.332 3.957,3.957 0 0 1 0,2.7 0.679,0.679 0 0 1 -1.172,0 2.573,2.573 0 0 1 -0.238,-1.35 2.541,2.541 0 0 1 0.26,-1.384 z"
             transform="translate(-110.68,-450.899)"
             inkscape:connector-curvature="0"
             style="fill:#454b54" />
          <path
             id="path20"
             class="cls-3"
             d="m 188.843,472.951 a 3,3 0 0 1 -0.743,0.486 v 0.49 a 3.074,3.074 0 0 0 0.532,-0.262 2.625,2.625 0 0 0 0.476,-0.35 v 3.223 h 0.5 V 472.4 h -0.327 a 1.756,1.756 0 0 1 -0.438,0.551 z"
             transform="translate(-184.083,-450.803)"
             inkscape:connector-curvature="0"
             style="fill:#454b54" />
          <path
             id="path22"
             class="cls-3"
             d="m 115.545,604.614 a 1.088,1.088 0 0 0 -0.416,-0.383 1.223,1.223 0 0 0 -0.584,-0.131 1.132,1.132 0 0 0 -0.747,0.243 1.471,1.471 0 0 0 -0.448,0.687 3.827,3.827 0 0 0 -0.149,1.172 2.72,2.72 0 0 0 0.406,1.677 1.135,1.135 0 0 0 0.939,0.43 1.181,1.181 0 0 0 0.752,-0.243 1.477,1.477 0 0 0 0.444,-0.687 3.806,3.806 0 0 0 0.149,-1.172 4.1,4.1 0 0 0 -0.093,-0.971 2.055,2.055 0 0 0 -0.253,-0.622 z m -0.411,2.938 a 0.675,0.675 0 0 1 -1.168,0 3.887,3.887 0 0 1 0.023,-2.742 0.654,0.654 0 0 1 0.556,-0.294 0.711,0.711 0 0 1 0.593,0.332 2.582,2.582 0 0 1 0.238,1.354 2.61,2.61 0 0 1 -0.242,1.35 z"
             transform="translate(-112.682,-576.352)"
             inkscape:connector-curvature="0"
             style="fill:#454b54" />
          <path
             id="path24"
             class="cls-3"
             d="M 191.618,608.143 V 604 h -0.327 a 1.97,1.97 0 0 1 -0.448,0.551 3,3 0 0 1 -0.743,0.486 v 0.49 a 3.073,3.073 0 0 0 0.532,-0.262 2.679,2.679 0 0 0 0.481,-0.35 v 3.223 h 0.5 z"
             transform="translate(-185.99,-576.257)"
             inkscape:connector-curvature="0"
             style="fill:#454b54" />
          <path
             id="path26"
             class="cls-3"
             d="M 251.018,608.143 V 604 h -0.327 a 1.97,1.97 0 0 1 -0.448,0.551 3,3 0 0 1 -0.743,0.486 v 0.49 a 3.246,3.246 0 0 0 0.532,-0.262 2.679,2.679 0 0 0 0.481,-0.35 v 3.223 h 0.5 z"
             transform="translate(-242.616,-576.257)"
             inkscape:connector-curvature="0"
             style="fill:#454b54" />
          <path
             id="path28"
             class="cls-3"
             d="m 312.14,604.614 a 1.088,1.088 0 0 0 -0.416,-0.383 1.217,1.217 0 0 0 -0.579,-0.131 1.132,1.132 0 0 0 -0.747,0.243 1.471,1.471 0 0 0 -0.448,0.687 3.859,3.859 0 0 0 -0.149,1.177 2.72,2.72 0 0 0 0.406,1.677 1.131,1.131 0 0 0 0.939,0.425 1.158,1.158 0 0 0 0.747,-0.243 1.454,1.454 0 0 0 0.444,-0.687 3.827,3.827 0 0 0 0.149,-1.172 4.1,4.1 0 0 0 -0.093,-0.971 1.841,1.841 0 0 0 -0.253,-0.622 z m -0.411,2.938 a 0.679,0.679 0 0 1 -1.172,0 2.572,2.572 0 0 1 -0.238,-1.35 2.63,2.63 0 0 1 0.262,-1.392 0.654,0.654 0 0 1 0.556,-0.294 0.711,0.711 0 0 1 0.593,0.332 2.582,2.582 0 0 1 0.238,1.354 2.526,2.526 0 0 1 -0.239,1.35 z"
             transform="translate(-300.099,-576.352)"
             inkscape:connector-curvature="0"
             style="fill:#454b54" />
          <path
             id="path30"
             class="cls-3"
             d="m 115.545,752.614 a 1.089,1.089 0 0 0 -0.416,-0.383 1.223,1.223 0 0 0 -0.584,-0.131 1.132,1.132 0 0 0 -0.747,0.243 1.5,1.5 0 0 0 -0.448,0.687 3.838,3.838 0 0 0 -0.149,1.177 2.72,2.72 0 0 0 0.406,1.677 1.135,1.135 0 0 0 0.939,0.43 1.18,1.18 0 0 0 0.752,-0.243 1.477,1.477 0 0 0 0.444,-0.687 3.806,3.806 0 0 0 0.149,-1.172 4.1,4.1 0 0 0 -0.093,-0.972 2.037,2.037 0 0 0 -0.253,-0.626 z m -0.411,2.938 a 0.675,0.675 0 0 1 -1.168,0 3.887,3.887 0 0 1 0.023,-2.742 0.654,0.654 0 0 1 0.556,-0.294 0.7,0.7 0 0 1 0.593,0.336 2.581,2.581 0 0 1 0.238,1.354 2.625,2.625 0 0 1 -0.242,1.346 z"
             transform="translate(-112.682,-717.44)"
             inkscape:connector-curvature="0"
             style="fill:#454b54" />
          <path
             id="path32"
             class="cls-3"
             d="m 184.145,752.614 a 1.123,1.123 0 0 0 -0.416,-0.383 1.223,1.223 0 0 0 -0.584,-0.131 1.132,1.132 0 0 0 -0.747,0.243 1.5,1.5 0 0 0 -0.448,0.687 3.826,3.826 0 0 0 -0.149,1.172 2.72,2.72 0 0 0 0.406,1.677 1.253,1.253 0 0 0 1.686,0.187 1.521,1.521 0 0 0 0.448,-0.687 3.806,3.806 0 0 0 0.149,-1.172 4.1,4.1 0 0 0 -0.093,-0.971 2.056,2.056 0 0 0 -0.252,-0.622 z m -0.411,2.938 a 0.675,0.675 0 0 1 -1.168,0 2.573,2.573 0 0 1 -0.238,-1.35 2.642,2.642 0 0 1 0.262,-1.392 0.654,0.654 0 0 1 0.556,-0.294 0.7,0.7 0 0 1 0.593,0.336 2.581,2.581 0 0 1 0.238,1.354 2.625,2.625 0 0 1 -0.243,1.346 z"
             transform="translate(-178.078,-717.44)"
             inkscape:connector-curvature="0"
             style="fill:#454b54" />
          <path
             id="path34"
             class="cls-3"
             d="m 252.74,752.614 a 1.111,1.111 0 0 0 -0.411,-0.383 1.236,1.236 0 0 0 -0.584,-0.131 1.132,1.132 0 0 0 -0.747,0.243 1.46,1.46 0 0 0 -0.448,0.687 3.827,3.827 0 0 0 -0.149,1.172 2.72,2.72 0 0 0 0.406,1.677 1.253,1.253 0 0 0 1.686,0.187 1.478,1.478 0 0 0 0.444,-0.687 3.806,3.806 0 0 0 0.149,-1.172 4.1,4.1 0 0 0 -0.093,-0.971 1.944,1.944 0 0 0 -0.253,-0.622 z m -0.411,2.938 a 0.679,0.679 0 0 1 -1.172,0 2.573,2.573 0 0 1 -0.238,-1.35 2.642,2.642 0 0 1 0.262,-1.392 0.654,0.654 0 0 1 0.556,-0.294 0.71,0.71 0 0 1 0.593,0.336 3.943,3.943 0 0 1 0,2.7 z"
             transform="translate(-243.474,-717.44)"
             inkscape:connector-curvature="0"
             style="fill:#454b54" />
          <path
             id="path36"
             class="cls-3"
             d="M 328.723,756.138 V 752 H 328.4 a 1.857,1.857 0 0 1 -0.453,0.551 3.005,3.005 0 0 1 -0.743,0.486 v 0.49 a 3.461,3.461 0 0 0 0.532,-0.262 2.679,2.679 0 0 0 0.481,-0.35 v 3.227 h 0.509 z"
             transform="translate(-316.687,-717.344)"
             inkscape:connector-curvature="0"
             style="fill:#454b54" />
          <path
             id="path38"
             class="cls-3"
             d="m 403.143,896.151 a 3.094,3.094 0 0 1 -0.743,0.486 v 0.49 a 3.073,3.073 0 0 0 0.532,-0.261 2.427,2.427 0 0 0 0.476,-0.35 v 3.223 h 0.5 V 895.6 h -0.327 a 1.808,1.808 0 0 1 -0.438,0.551 z"
             transform="translate(-388.374,-854.238)"
             inkscape:connector-curvature="0"
             style="fill:#454b54" />
          <path
             id="path40"
             class="cls-3"
             d="m 115.545,900.418 a 1.088,1.088 0 0 0 -0.416,-0.383 1.225,1.225 0 0 0 -0.584,-0.135 1.155,1.155 0 0 0 -0.747,0.238 1.5,1.5 0 0 0 -0.448,0.687 3.86,3.86 0 0 0 -0.15,1.175 2.73,2.73 0 0 0 0.406,1.677 1.131,1.131 0 0 0 0.939,0.425 1.154,1.154 0 0 0 0.752,-0.243 1.469,1.469 0 0 0 0.444,-0.691 3.805,3.805 0 0 0 0.149,-1.168 4.171,4.171 0 0 0 -0.093,-0.976 2.147,2.147 0 0 0 -0.252,-0.606 z m -0.411,2.938 a 0.675,0.675 0 0 1 -1.168,0 3.887,3.887 0 0 1 0.023,-2.742 0.654,0.654 0 0 1 0.556,-0.294 0.7,0.7 0 0 1 0.593,0.336 3.907,3.907 0 0 1 0,2.7 z"
             transform="translate(-112.682,-858.337)"
             inkscape:connector-curvature="0"
             style="fill:#454b54" />
          <path
             id="path42"
             class="cls-3"
             d="m 190.843,900.451 a 3.007,3.007 0 0 1 -0.743,0.486 v 0.49 a 3.456,3.456 0 0 0 0.532,-0.261 2.682,2.682 0 0 0 0.481,-0.35 v 3.223 h 0.5 V 899.9 h -0.327 a 1.714,1.714 0 0 1 -0.443,0.551 z"
             transform="translate(-185.99,-858.337)"
             inkscape:connector-curvature="0"
             style="fill:#454b54" />
          <path
             id="path44"
             class="cls-3"
             d="m 250.343,900.451 a 3.007,3.007 0 0 1 -0.743,0.486 v 0.49 a 3.676,3.676 0 0 0 0.532,-0.261 2.683,2.683 0 0 0 0.481,-0.35 v 3.223 h 0.5 V 899.9 h -0.327 a 1.849,1.849 0 0 1 -0.443,0.551 z"
             transform="translate(-242.711,-858.337)"
             inkscape:connector-curvature="0"
             style="fill:#454b54" />
          <path
             id="path46"
             class="cls-3"
             d="m 312.14,900.418 a 1.088,1.088 0 0 0 -0.416,-0.383 1.219,1.219 0 0 0 -0.579,-0.135 1.155,1.155 0 0 0 -0.747,0.238 1.5,1.5 0 0 0 -0.448,0.687 3.86,3.86 0 0 0 -0.15,1.175 2.729,2.729 0 0 0 0.406,1.677 1.258,1.258 0 0 0 1.686,0.182 1.469,1.469 0 0 0 0.444,-0.691 3.805,3.805 0 0 0 0.149,-1.172 4.17,4.17 0 0 0 -0.093,-0.976 1.9,1.9 0 0 0 -0.252,-0.602 z m -0.411,2.938 a 0.679,0.679 0 0 1 -1.172,0 2.572,2.572 0 0 1 -0.238,-1.35 2.63,2.63 0 0 1 0.262,-1.392 0.654,0.654 0 0 1 0.556,-0.294 0.7,0.7 0 0 1 0.593,0.336 2.581,2.581 0 0 1 0.238,1.354 2.517,2.517 0 0 1 -0.239,1.346 z"
             transform="translate(-300.099,-858.337)"
             inkscape:connector-curvature="0"
             style="fill:#454b54" />
        </g>
      </g>
    </g>
  </g>
  <g
     id="Ellipse_1-3"
     data-name="Ellipse 1"
     class="cls-8"
     transform="translate(247.03906,357.5)"
     style="fill:#ffffff;stroke:#95989a">
    <circle
       class="cls-13"
       cx="41"
       cy="41"
       r="41"
       id="circle119"
       style="stroke:none" />
    <circle
       class="cls-14"
       cx="41"
       cy="41"
       r="40.5"
       id="circle121"
       style="fill:none" />
  </g>
  <text
     id="Use_handy_Graphical_Interface_to_set-up_all_boundary_conditions"
     data-name="Use handy Graphical Interface to set-up all boundary conditions"
     class="cls-9"
     style="font-size:16px;font-family:SegoeUI, 'Segoe UI';fill:#454b54"
     x="-1.96094"
     y="392.5">
    <tspan
       x="4.1560602"
       y="409.5"
       id="tspan124">Use handy Graphical Interface to</tspan>
    <tspan
       x="18.17206"
       y="430.5"
       id="tspan126">set-up all boundary conditions</tspan>
  </text>
  <path
     id="Path_7-3"
     data-name="Path 7"
     class="cls-10"
     d="m 523.08847,453.91942 -83.04941,5.88058 -119.1,-38.7"
     inkscape:connector-curvature="0"
     style="fill:none;stroke:#95989a"
     sodipodi:nodetypes="ccc" />
  <g
     id="Ellipse_2-3"
     data-name="Ellipse 2"
     class="cls-11"
     transform="translate(521.55972,450.2593)"
     style="fill:#95989a;stroke:#95989a">
    <circle
       class="cls-13"
       cx="3.5"
       cy="3.5"
       r="3.5"
       id="circle130"
       style="stroke:none" />
    <circle
       class="cls-14"
       cx="3.5"
       cy="3.5"
       r="3"
       id="circle132"
       style="fill:none" />
  </g>
  <text
     id="_2._SET_UP_DETAILS"
     data-name="2. SET UP DETAILS"
     class="cls-12"
     style="font-weight:600;font-size:24px;font-family:SegoeUI-Semibold, 'Segoe UI';fill:#454b54"
     x="36.039059"
     y="386.5">
    <tspan
       x="36.039059"
       y="386.5"
       id="tspan135">2. SET UP DETAILS</tspan>
  </text>
  <g
     id="Group_21"
     data-name="Group 21"
     transform="translate(-615.96094,-847.5)">
    <path
       id="Path_8"
       data-name="Path 8"
       class="cls-3"
       d="m 48.728,41.9 c -2.833,0 -6.046,-6.725 -7.4,-10.963 a 0.22,0.22 0 0 1 -0.021,-0.042 1.079,1.079 0 0 0 -0.054,-0.1 0.928,0.928 0 0 0 -0.123,-0.183 0.783,0.783 0 0 0 -0.085,-0.083 1.086,1.086 0 0 0 -0.185,-0.126 0.778,0.778 0 0 0 -0.1,-0.049 0.916,0.916 0 0 0 -0.333,-0.068 0.929,0.929 0 0 0 -0.334,0.068 c -0.034,0.013 -0.061,0.032 -0.094,0.048 a 0.893,0.893 0 0 0 -0.188,0.127 0.96,0.96 0 0 0 -0.082,0.082 0.932,0.932 0 0 0 -0.124,0.185 1.053,1.053 0 0 0 -0.053,0.1 0.437,0.437 0 0 0 -0.021,0.042 C 38.172,35.171 34.96,41.9 32.125,41.9 a 0.943,0.943 0 0 0 -0.8,1.441 l 4.01,6.464 v 4.756 a 0.943,0.943 0 0 0 0.29,0.677 v 8.2 a 0.941,0.941 0 0 0 0.942,0.942 H 44 a 0.94,0.94 0 0 0 0.942,-0.942 v -8.1 a 0.925,0.925 0 0 0 0.434,-0.771 V 50.03 l 4.151,-6.692 A 0.943,0.943 0 0 0 49.55,42.384 0.929,0.929 0 0 0 48.728,41.9 Z m -8.372,1.991 a 1.275,1.275 0 1 1 -1.277,1.275 1.275,1.275 0 0 1 1.277,-1.28 z m 3.138,9.726 h -6.278 v -3.14 h 6.277 z M 43.06,62.49 h -5.553 v -6.996 h 5.553 z m 1,-13.9 H 36.8 l -3.177,-5.121 c 2.463,-1.028 4.5,-4.392 5.864,-7.31 v 5.984 a 3.159,3.159 0 1 0 1.882,0.045 v -6.032 c 1.365,2.918 3.4,6.284 5.866,7.31 z"
       transform="translate(863.437,1204.026)"
       inkscape:connector-curvature="0"
       style="fill:#454b54" />
    <path
       id="Path_9"
       data-name="Path 9"
       class="cls-3"
       d="m 57.186,21.973 a 1.867,1.867 0 0 0 -1.607,0.93 H 42.953 V 21.34 A 0.941,0.941 0 0 0 42.011,20.398 H 37 A 0.942,0.942 0 0 0 36.058,21.34 V 22.9 H 25.012 a 1.872,1.872 0 1 0 0,1.883 H 36.06 v 1.567 a 0.942,0.942 0 0 0 0.942,0.942 h 5.009 a 0.941,0.941 0 0 0 0.942,-0.942 v -1.564 h 12.622 a 1.868,1.868 0 1 0 1.61,-2.814 z M 23.4,24.775 23.389,23.845 A 0.011,0.011 0 0 1 23.4,23.834 Z m 17.666,0.633 h -3.122 v -3.127 h 3.125 z m 16.116,-0.633 -0.011,-0.93 a 0.011,0.011 0 0 1 0.011,-0.011 z"
       transform="translate(864,1204.602)"
       inkscape:connector-curvature="0"
       style="fill:#454b54" />
  </g>
  <g
     id="Ellipse_1-4"
     data-name="Ellipse 1"
     class="cls-8"
     transform="translate(247.03906,60.5)"
     style="fill:#ffffff;stroke:#95989a">
    <circle
       class="cls-13"
       cx="41"
       cy="41"
       r="41"
       id="circle142"
       style="stroke:none" />
    <circle
       class="cls-14"
       cx="41"
       cy="41"
       r="40.5"
       id="circle144"
       style="fill:none" />
  </g>
  <text
     id="Use_AutoCAD_plugin_to_create_3D_geometrical_entities"
     data-name="Use AutoCAD plugin to create 3D geometrical entities"
     class="cls-9"
     style="font-size:16px;font-family:SegoeUI, 'Segoe UI';fill:#454b54"
     x="7.0390625"
     y="95.5">
    <tspan
       x="22.008062"
       y="112.5"
       id="tspan147">Use AutoCAD plugin to create</tspan>
    <tspan
       x="70.680061"
       y="133.5"
       id="tspan149">3D geometrical entities</tspan>
  </text>
  <path
     id="Path_7-4"
     data-name="Path 7"
     class="cls-10"
     d="M 503.59436,210.53623 460.62698,141.42023 320.93906,124.1"
     inkscape:connector-curvature="0"
     style="fill:none;stroke:#95989a"
     sodipodi:nodetypes="ccc" />
  <g
     id="Ellipse_2-4"
     data-name="Ellipse 2"
     class="cls-11"
     transform="translate(501.44622,208.59213)"
     style="fill:#95989a;stroke:#95989a">
    <circle
       class="cls-13"
       cx="3.5"
       cy="3.5"
       r="3.5"
       id="circle153"
       style="stroke:none" />
    <circle
       class="cls-14"
       cx="3.5"
       cy="3.5"
       r="3"
       id="circle155"
       style="fill:none" />
  </g>
  <text
     id="_1._CREATE_GEOMETRY"
     data-name="1. CREATE GEOMETRY"
     class="cls-12"
     style="font-weight:600;font-size:24px;font-family:SegoeUI-Semibold, 'Segoe UI';fill:#454b54"
     x="-0.9609375"
     y="89.5">
    <tspan
       x="-0.9609375"
       y="89.5"
       id="tspan158">1. CREATE GEOMETRY</tspan>
  </text>
  <g
     id="cad"
     transform="translate(213.33906,65.271)">
    <rect
       id="XMLID_276_"
       class="cls-3"
       width="24.219"
       height="2.0369999"
       transform="translate(61.696,22.23)"
       x="0"
       y="0"
       style="fill:#454b54" />
    <rect
       id="XMLID_275_"
       class="cls-3"
       width="24.219"
       height="2.0369999"
       transform="translate(61.696,25.536)"
       x="0"
       y="0"
       style="fill:#454b54" />
    <rect
       id="XMLID_274_"
       class="cls-3"
       width="24.219"
       height="2.0369999"
       transform="translate(61.696,28.852)"
       x="0"
       y="0"
       style="fill:#454b54" />
    <rect
       id="XMLID_273_"
       class="cls-3"
       width="24.219"
       height="2.0369999"
       transform="translate(61.696,32.158)"
       x="0"
       y="0"
       style="fill:#454b54" />
    <rect
       id="XMLID_272_"
       class="cls-3"
       width="18.823"
       height="2.0369999"
       transform="translate(61.696,35.465)"
       x="0"
       y="0"
       style="fill:#454b54" />
    <path
       id="XMLID_271_"
       class="cls-3"
       d="m 344.545,13.325 -6.239,-7.231 a 0.515,0.515 0 0 0 -0.715,0 l -6.239,7.231 a 0.423,0.423 0 0 0 0.352,0.715 h 2.922 v 5.674 h 6.623 v -5.675 h 2.922 c 0.438,0 0.651,-0.439 0.374,-0.714 z"
       transform="translate(-247.037)"
       inkscape:connector-curvature="0"
       style="fill:#454b54" />
    <rect
       id="XMLID_270_"
       class="cls-3"
       width="6.6230001"
       height="2.5810001"
       transform="translate(87.601,20.737)"
       x="0"
       y="0"
       style="fill:#454b54" />
    <path
       id="XMLID_269_"
       class="cls-3"
       d="m 363.2,179.349 a 0.455,0.455 0 0 0 0.48,0.427 h 5.663 a 0.455,0.455 0 0 0 0.48,-0.427 V 178.4 H 363.2 Z"
       transform="translate(-275.599,-154.059)"
       inkscape:connector-curvature="0"
       style="fill:#454b54" />
    <path
       id="XMLID_268_"
       class="cls-3"
       d="m 101.72,228.533 a 3.049,3.049 0 0 1 -3.05,3.05 H 72.158 a 3.049,3.049 0 0 1 -3.05,-3.05 v -0.938 H 67.7 v 1.45 a 3.944,3.944 0 0 0 3.946,3.946 h 27.525 a 3.944,3.944 0 0 0 3.946,-3.946 V 200.4 h -1.407 v 28.133 z"
       transform="translate(-11.614,-173.713)"
       inkscape:connector-curvature="0"
       style="fill:#454b54" />
    <path
       id="XMLID_267_"
       class="cls-3"
       d="M 69.2,73.047 A 3.049,3.049 0 0 1 72.247,70 h 22.737 a 1.356,1.356 0 0 1 0.32,-1.354 l 0.043,-0.043 h -23.6 A 3.944,3.944 0 0 0 67.8,72.546 V 96.8 h 1.408 V 73.047 Z"
       transform="translate(-11.703,-55.969)"
       inkscape:connector-curvature="0"
       style="fill:#454b54" />
    <path
       id="XMLID_266_"
       class="cls-3"
       d="m 247.8,371.1 h -1.1 v 4.938 h 1.1 a 1.629,1.629 0 0 0 1.29,-0.544 2.049,2.049 0 0 0 0.48,-1.408 v -1.034 a 2.04,2.04 0 0 0 -0.48,-1.4 1.6,1.6 0 0 0 -1.29,-0.552 z"
       transform="translate(-171.524,-326.208)"
       inkscape:connector-curvature="0"
       style="fill:#454b54" />
    <path
       id="XMLID_1080_"
       class="cls-3"
       d="m 85.7,347.756 v 0 A 5.56,5.56 0 0 0 80.144,342.2 H 54.7 v 11.1 h 25.457 a 5.548,5.548 0 0 0 5.543,-5.544 z m -22.929,2.016 a 1.3,1.3 0 0 0 1.109,0.544 1.384,1.384 0 0 0 1.045,-0.363 1.444,1.444 0 0 0 0.363,-1.045 h 1.088 l 0.011,0.032 a 2.087,2.087 0 0 1 -0.661,1.642 2.623,2.623 0 0 1 -1.834,0.629 2.509,2.509 0 0 1 -1.909,-0.789 2.871,2.871 0 0 1 -0.736,-2.026 v -1.28 a 2.912,2.912 0 0 1 0.725,-2.026 2.419,2.419 0 0 1 1.888,-0.8 2.741,2.741 0 0 1 1.877,0.608 2.055,2.055 0 0 1 0.661,1.664 l -0.011,0.032 h -1.1 a 1.375,1.375 0 0 0 -0.363,-1.034 1.492,1.492 0 0 0 -1.077,-0.363 1.279,1.279 0 0 0 -1.088,0.544 2.263,2.263 0 0 0 -0.405,1.376 v 1.29 a 2.257,2.257 0 0 0 0.419,1.365 z m 9,1.344 -0.512,-1.578 h -2.386 l -0.523,1.578 h -1.162 l 2.346,-6.74 H 70.6 l 2.325,6.74 z m 7.391,-2.847 a 2.78,2.78 0 0 1 -0.8,2.058 2.813,2.813 0 0 1 -2.08,0.8 h -2.226 v -6.74 h 2.218 a 2.813,2.813 0 0 1 2.08,0.8 2.78,2.78 0 0 1 0.8,2.058 v 1.024 z"
       transform="translate(0,-300.39)"
       inkscape:connector-curvature="0"
       style="fill:#454b54" />
    <path
       id="XMLID_261_"
       class="cls-3"
       d="m 191.374,377.4 -0.874,2.655 h 1.77 l -0.864,-2.655 z"
       transform="translate(-121.317,-331.836)"
       inkscape:connector-curvature="0"
       style="fill:#454b54" />
  </g>
</svg>
