<svg xmlns="http://www.w3.org/2000/svg" viewBox="0 0 106.376 122">
  <defs>
    <style>
      .cls-1 {
        fill: #c7d7e2;
      }

      .cls-2 {
        fill: #454b54;
      }

      .cls-3 {
        fill: #2d333b;
      }
    </style>
  </defs>
  <g id="StartUp-icon" transform="translate(-31.35)">
    <g id="Group_1" data-name="Group 1" transform="translate(31.35 0)">
      <rect id="Rectangle_7" data-name="Rectangle 7" class="cls-1" width="101.193" height="16.571" transform="translate(2.915 84.373)"/>
      <path id="Path_1" data-name="Path 1" class="cls-2" d="M172.4,438.9a2.276,2.276,0,0,0-2.268,2.268V447H150.618a2.268,2.268,0,1,0,0,4.535h43.557a2.268,2.268,0,1,0,0-4.535H174.664v-5.831A2.26,2.26,0,0,0,172.4,438.9Z" transform="translate(-119.196 -329.534)"/>
      <path id="Path_2" data-name="Path 2" class="cls-2" d="M36.807,183.224h95.462a5.456,5.456,0,0,0,5.457-5.457v-65.71a5.456,5.456,0,0,0-5.457-5.457H105.557a2.268,2.268,0,1,0,0,4.535h26.712a.946.946,0,0,1,.947.947v65.734a.946.946,0,0,1-.947.947H36.807a.946.946,0,0,1-.947-.947V166.877h90.055a2.268,2.268,0,0,0,0-4.535H114.527a13.579,13.579,0,0,0-13.406-11.612,2.268,2.268,0,1,0,0,4.535,9.057,9.057,0,0,1,8.821,7.077H99.626A15.494,15.494,0,0,0,86.27,148.961V133.238a2.268,2.268,0,0,0-4.535,0v15.823a15.52,15.52,0,0,0-12.783,13.281H58.586a9.057,9.057,0,0,1,8.821-7.077,2.268,2.268,0,1,0,0-4.535A13.579,13.579,0,0,0,54,162.342H34.714a2.325,2.325,0,0,0-1.1-.3,2.276,2.276,0,0,0-2.268,2.268v13.481A5.483,5.483,0,0,0,36.807,183.224Zm47.519-29.9a10.966,10.966,0,0,1,10.765,9h-21.5A10.9,10.9,0,0,1,84.326,153.322Z" transform="translate(-31.35 -80.037)"/>
      <path id="Path_3" data-name="Path 3" class="cls-2" d="M33.618,157.258a2.276,2.276,0,0,0,2.268-2.268V111.882a.946.946,0,0,1,.947-.947H63.619a2.268,2.268,0,1,0,0-4.535H36.807a5.456,5.456,0,0,0-5.457,5.457v43.109A2.281,2.281,0,0,0,33.618,157.258Z" transform="translate(-31.35 -79.887)"/>
      <circle id="Ellipse_1" data-name="Ellipse 1" class="cls-2" cx="2.616" cy="2.616" r="2.616" transform="translate(50.385 90.429)"/>
      <path id="Path_4" data-name="Path 4" class="cls-3" d="M163.75,56.739a2.276,2.276,0,0,0,2.268,2.268h4.635v5.233a2.268,2.268,0,1,0,4.535,0V59.007h.3a2.268,2.268,0,0,0,0-4.535H168.26V51.955a4.046,4.046,0,0,1,.748-2.367l4.087-5.856a8.291,8.291,0,0,0,1.5-4.759V19.362a7.762,7.762,0,0,1,1.869-5.033l7.351-8.6,7.376,8.572a7.769,7.769,0,0,1,1.894,5.058V39.1a8.372,8.372,0,0,0,1.3,4.46l3.812,6.005a4.113,4.113,0,0,1,.648,2.218v2.666h-6.853a2.263,2.263,0,0,0-.274,4.51v5.258a2.268,2.268,0,1,0,4.535,0V58.982h4.834a2.276,2.276,0,0,0,2.268-2.268V51.78A8.73,8.73,0,0,0,202,47.145l-3.812-6.005a3.756,3.756,0,0,1-.6-2.043V19.386a12.354,12.354,0,0,0-2.99-8.024L185.479.772A2.232,2.232,0,0,0,183.759,0a2.294,2.294,0,0,0-1.719.8l-9.045,10.59a12.308,12.308,0,0,0-2.94,7.974V39a3.722,3.722,0,0,1-.673,2.168l-4.087,5.856a8.591,8.591,0,0,0-1.545,4.959v4.759Z" transform="translate(-130.758 0)"/>
    </g>
  </g>
</svg>
