<?xml version="1.0" encoding="UTF-8" standalone="no"?>
<!-- Created with Inkscape (http://www.inkscape.org/) -->

<svg
   xmlns:dc="http://purl.org/dc/elements/1.1/"
   xmlns:cc="http://creativecommons.org/ns#"
   xmlns:rdf="http://www.w3.org/1999/02/22-rdf-syntax-ns#"
   xmlns:svg="http://www.w3.org/2000/svg"
   xmlns="http://www.w3.org/2000/svg"
   xmlns:sodipodi="http://sodipodi.sourceforge.net/DTD/sodipodi-0.dtd"
   xmlns:inkscape="http://www.inkscape.org/namespaces/inkscape"
   width="15.07985mm"
   height="21.263138mm"
   viewBox="0 0 53.43254 75.341826"
   id="svg2"
   version="1.1"
   inkscape:version="0.92.3 (2405546, 2018-03-11)"
   sodipodi:docname="wizfds-icon.svg"
   inkscape:export-filename="C:\Users\F&amp;KConsultingEnginee\Desktop\WizFDS2\wizWelcome\src\favicon.png"
   inkscape:export-xdpi="97.346634"
   inkscape:export-ydpi="97.346634">
  <defs
     id="defs4" />
  <sodipodi:namedview
     id="base"
     pagecolor="#ffffff"
     bordercolor="#666666"
     borderopacity="1.0"
     inkscape:pageopacity="0.0"
     inkscape:pageshadow="2"
     inkscape:zoom="2.0000001"
     inkscape:cx="-73.170809"
     inkscape:cy="58.78225"
     inkscape:document-units="px"
     inkscape:current-layer="layer1"
     showgrid="false"
     showguides="true"
     inkscape:guide-bbox="true"
     inkscape:window-width="1920"
     inkscape:window-height="1017"
     inkscape:window-x="-8"
     inkscape:window-y="-8"
     inkscape:window-maximized="1"
     fit-margin-top="0"
     fit-margin-left="0"
     fit-margin-right="0"
     fit-margin-bottom="0">
    <sodipodi:guide
       position="-653.59147,-562.87609"
       orientation="0,1"
       id="guide3383"
       inkscape:locked="false" />
  </sodipodi:namedview>
  <metadata
     id="metadata7">
    <rdf:RDF>
      <cc:Work
         rdf:about="">
        <dc:format>image/svg+xml</dc:format>
        <dc:type
           rdf:resource="http://purl.org/dc/dcmitype/StillImage" />
        <dc:title></dc:title>
      </cc:Work>
    </rdf:RDF>
  </metadata>
  <g
     inkscape:label="Layer 1"
     inkscape:groupmode="layer"
     id="layer1"
     transform="translate(-53.560866,-102.38596)">
    <path
       inkscape:connector-curvature="0"
       style="font-style:normal;font-weight:bold;font-size:medium;line-height:125%;font-family:Sans;letter-spacing:0px;word-spacing:0px;fill:#2e3239;fill-opacity:1;stroke:none;stroke-width:0.8469314px;stroke-linecap:butt;stroke-linejoin:miter;stroke-opacity:1"
       d="m 105.27293,104.48433 c 0,0 -7.367213,-0.0375 -8.849005,0.0964 -1.978253,0.17887 -3.676193,0.27335 -4.825453,0.60403 -2.624988,0.75527 -4.707635,1.65929 -4.711056,1.66078 -1.29357,0.55779 -2.346373,1.49412 -3.078401,2.64004 l -0.909791,17.88316 c -0.181718,3.5721 -0.665578,6.43131 -1.086782,6.40988 -0.421213,-0.0214 -0.61511,-2.91388 -0.433392,-6.48598 l 1.009042,-19.81521 c -0.882146,-3.17699 -3.995441,-5.44789 -7.466894,-5.0452 -9.92779,1.15439 -18.258038,7.30493 -18.311581,7.34448 -2.011978,1.35997 -3.169759,3.67988 -3.038697,6.10552 l 2.944408,54.22677 c 0.146189,2.69525 1.853967,5.06569 4.363679,6.0592 11.194968,4.42993 20.59102,-1.985 20.59102,-1.985 0.01396,-0.01 0.02774,-0.0196 0.04133,-0.0298 0.376631,-0.27943 0.651206,-0.66405 0.962724,-1.01235 5.393319,1.2384 15.951634,0.31515 19.801089,-0.74995 1.17187,-0.64453 7.79065,-66.34174 2.99776,-67.90676 -2.87109,-0.9375 0,-1e-5 0,-1e-5 z"
       id="path4381"
       sodipodi:nodetypes="ccccccccccccccccccsc"
       inkscape:export-filename="C:\Users\F&amp;KConsultingEnginee\Desktop\WizFDS2\wizWelcome\src\favicon.png"
       inkscape:export-xdpi="16.290001"
       inkscape:export-ydpi="16.290001" />
    <path
       inkscape:connector-curvature="0"
       id="path4383"
       d="m 75.550251,109.64207 c -7.274599,0.84589 -15.23965,6.20244 -15.23965,6.20244 l 2.943942,54.22692 c 8.067581,3.1924 13.985091,-1.15463 13.985091,-1.15463 l 2.527607,-12.84897 2.810703,10.44904 c 7.865173,2.50199 15.222991,0.37748 15.222991,0.37748 l 1.961392,-55.32789 c -3.383534,-1.01506 -10.304708,1.97064 -10.304708,1.97064 l -2.708936,40.22703 -5.604771,-14.74375 -7.762305,11.27246 z"
       style="font-style:normal;font-weight:bold;font-size:medium;line-height:125%;font-family:Sans;letter-spacing:0px;word-spacing:0px;fill:#ffffff;fill-opacity:1;stroke:none;stroke-width:0.8469314px;stroke-linecap:butt;stroke-linejoin:miter;stroke-opacity:1"
       sodipodi:nodetypes="ccccccccccccc"
       inkscape:export-filename="C:\Users\F&amp;KConsultingEnginee\Desktop\WizFDS2\wizWelcome\src\favicon.png"
       inkscape:export-xdpi="16.290001"
       inkscape:export-ydpi="16.290001" />
  </g>
</svg>
